<svg width="308" height="112" viewBox="0 0 308 112" fill="none" xmlns="http://www.w3.org/2000/svg">
<path d="M9.92614 53H3.17614L15.4659 18.0909H23.2727L35.5795 53H28.8295L19.5057 25.25H19.233L9.92614 53ZM10.1477 39.3125H28.5568V44.392H10.1477V39.3125ZM40.1776 53V18.0909H46.5014V47.6989H61.8764V53H40.1776ZM67.3651 18.0909H75.1037L85.4673 43.3864H85.8764L96.2401 18.0909H103.979V53H97.9105V29.017H97.5866L87.9389 52.8977H83.4048L73.7571 28.9659H73.4332V53H67.3651V18.0909ZM110.865 53V18.0909H133.57V23.392H117.189V32.8693H132.393V38.1705H117.189V47.6989H133.706V53H110.865ZM140.021 53V18.0909H153.112C155.794 18.0909 158.044 18.5568 159.862 19.4886C161.692 20.4205 163.072 21.7273 164.004 23.4091C164.947 25.0795 165.419 27.0284 165.419 29.2557C165.419 31.4943 164.942 33.4375 163.987 35.0852C163.044 36.7216 161.652 37.9886 159.811 38.8864C157.97 39.7727 155.709 40.2159 153.027 40.2159H143.703V34.9659H152.175C153.743 34.9659 155.027 34.75 156.027 34.3182C157.027 33.875 157.766 33.233 158.243 32.392C158.732 31.5398 158.976 30.4943 158.976 29.2557C158.976 28.017 158.732 26.9602 158.243 26.0852C157.754 25.1989 157.01 24.5284 156.01 24.0739C155.01 23.608 153.72 23.375 152.141 23.375H146.345V53H140.021ZM158.055 37.1818L166.697 53H159.641L151.152 37.1818H158.055ZM177.564 18.0909V53H171.24V18.0909H177.564ZM188.895 53H182.145L194.435 18.0909H202.241L214.548 53H207.798L198.474 25.25H198.202L188.895 53ZM189.116 39.3125H207.526V44.392H189.116V39.3125Z" fill="url(#paint0_linear_2365_143)"/>
<path d="M3.18182 61.6534V52.8182H49.6023V61.6534H31.6193V111H21.1648V61.6534H3.18182ZM58.5511 111V52.8182H96.392V61.6534H69.0909V77.4489H94.4318V86.2841H69.0909V102.165H96.6193V111H58.5511ZM156.946 72.4489H146.321C146.018 70.7064 145.459 69.1629 144.645 67.8182C143.83 66.4545 142.817 65.2992 141.605 64.3523C140.393 63.4053 139.01 62.6951 137.457 62.2216C135.923 61.7292 134.266 61.483 132.486 61.483C129.323 61.483 126.52 62.2784 124.077 63.8693C121.634 65.4413 119.721 67.7519 118.338 70.8011C116.955 73.8314 116.264 77.5341 116.264 81.9091C116.264 86.3598 116.955 90.1098 118.338 93.1591C119.74 96.1894 121.652 98.4811 124.077 100.034C126.52 101.568 129.313 102.335 132.457 102.335C134.2 102.335 135.829 102.108 137.344 101.653C138.878 101.18 140.251 100.489 141.463 99.5795C142.694 98.6705 143.726 97.553 144.56 96.2273C145.412 94.9015 145.999 93.3864 146.321 91.6818L156.946 91.7386C156.548 94.5038 155.687 97.0985 154.361 99.5227C153.054 101.947 151.34 104.087 149.219 105.943C147.098 107.78 144.616 109.22 141.776 110.261C138.935 111.284 135.781 111.795 132.315 111.795C127.202 111.795 122.637 110.612 118.622 108.244C114.607 105.877 111.444 102.458 109.134 97.9886C106.823 93.5189 105.668 88.1591 105.668 81.9091C105.668 75.6402 106.832 70.2803 109.162 65.8295C111.491 61.3598 114.664 57.9413 118.679 55.5739C122.694 53.2064 127.24 52.0227 132.315 52.0227C135.554 52.0227 138.565 52.4773 141.349 53.3864C144.134 54.2955 146.615 55.6307 148.793 57.392C150.971 59.1345 152.76 61.2746 154.162 63.8125C155.582 66.3314 156.51 69.2102 156.946 72.4489ZM166.598 111V52.8182H177.138V77.4489H204.098V52.8182H214.666V111H204.098V86.2841H177.138V111H166.598Z" fill="url(#paint1_linear_2365_143)"/>
<path d="M249.593 19.4904H245.321C243.885 19.4904 242.721 20.6594 242.721 22.1015C242.721 23.5435 243.885 24.7126 245.321 24.7126H249.593V31.7999H245.321C243.885 31.7999 242.721 32.969 242.721 34.411C242.721 35.8531 243.885 37.0221 245.321 37.0221H249.593V55.3005H241.7V46.7209C241.7 41.2702 237.285 36.8358 231.857 36.8358C226.43 36.8358 222.014 41.2706 222.014 46.7213V50.265H219.6C218.164 50.265 217 51.434 217 52.876C217 54.3181 218.164 55.4871 219.6 55.4871H222.014V62.5745H219.6C218.164 62.5745 217 63.7435 217 65.1856C217 66.6276 218.164 67.7967 219.6 67.7967H222.527C224.419 75.4968 231.352 81.2254 239.595 81.2254H246.528V108.27C246.528 110.33 248.191 112 250.243 112H274.757C276.809 112 278.472 110.33 278.472 108.27V68.9163H285.188C293.474 68.9163 300.456 63.1997 302.428 55.4875H305.4C306.836 55.4875 308 54.3185 308 52.8764C308 51.4344 306.836 50.2653 305.4 50.2653H302.986V43.178H305.4C306.836 43.178 308 42.009 308 40.5669C308 39.1248 306.836 37.9558 305.4 37.9558H302.986V34.4121C302.986 28.9614 298.57 24.527 293.143 24.527C287.715 24.527 283.3 28.9614 283.3 34.4121V42.9917H275.407V24.7133H280.05C281.486 24.7133 282.65 23.5443 282.65 22.1022C282.65 20.6602 281.486 19.4911 280.05 19.4911H275.407C275.407 17.2723 274.848 14.7162 273.866 12.8884L276.534 10.2087C277.55 9.18859 277.55 7.53573 276.534 6.51565C275.519 5.49633 273.873 5.49633 272.857 6.51565L270.511 8.8722C268.956 7.63264 267.114 6.74192 265.1 6.32672V2.61109C265.1 1.16903 263.936 0 262.5 0C261.064 0 259.9 1.16903 259.9 2.61109V6.32597C257.886 6.74116 256.044 7.63189 254.49 8.87144L252.144 6.5149C251.128 5.49558 249.482 5.49558 248.466 6.5149C247.451 7.53497 247.451 9.18783 248.466 10.2079L251.135 12.8876C250.152 14.7158 249.593 17.2719 249.593 19.4904ZM295.557 51.0426C295.557 56.7844 290.906 61.456 285.188 61.456H274.757C272.706 61.456 271.043 63.1262 271.043 65.1863V104.54H253.957V77.4962C253.957 75.4361 252.294 73.7659 250.243 73.7659H239.595C233.997 73.7659 229.443 69.192 229.443 63.5697V46.7217C229.443 45.3848 230.526 44.2969 231.858 44.2969C233.189 44.2969 234.272 45.3844 234.272 46.7217V59.0316C234.272 61.0917 235.935 62.7619 237.986 62.7619H253.308C255.359 62.7619 257.022 61.0917 257.022 59.0316V19.0243C257.022 15.9905 259.48 13.5223 262.5 13.5223C265.521 13.5223 267.979 15.9908 267.979 19.0243V46.7213C267.979 48.7814 269.642 50.4516 271.693 50.4516H287.014C289.066 50.4516 290.729 48.7814 290.729 46.7213V34.4114C290.729 33.0745 291.812 31.9866 293.143 31.9866C294.475 31.9866 295.558 33.0742 295.558 34.4114L295.557 51.0426Z" fill="url(#paint2_linear_2365_143)"/>
<defs>
<linearGradient id="paint0_linear_2365_143" x1="116.5" y1="7" x2="116.5" y2="85" gradientUnits="userSpaceOnUse">
<stop stop-color="#AAE2C9"/>
<stop offset="1" stop-color="#6CF23D"/>
</linearGradient>
<linearGradient id="paint1_linear_2365_143" x1="114.5" y1="33" x2="114.5" y2="111" gradientUnits="userSpaceOnUse">
<stop stop-color="#AAE2C9"/>
<stop offset="1" stop-color="#6CF23D"/>
</linearGradient>
<linearGradient id="paint2_linear_2365_143" x1="262.5" y1="0" x2="262.5" y2="112" gradientUnits="userSpaceOnUse">
<stop stop-color="#AAE2C9"/>
<stop offset="1" stop-color="#6CF23D"/>
</linearGradient>
</defs>
</svg>
