<svg width="178" height="58" viewBox="0 0 178 58" fill="none" xmlns="http://www.w3.org/2000/svg">
<path d="M134.185 0.410156C136.6 0.410157 138.444 0.803133 140.021 1.66895C141.568 2.49428 142.776 3.67865 143.624 5.23242L143.778 5.51562C144.533 6.9474 145.032 8.60589 145.305 10.4707C145.616 12.4047 145.756 14.533 145.756 16.8486V23.8037H137.292V16.8125C137.292 13.5011 137.038 11.1264 136.569 9.63477L136.567 9.62598L136.564 9.61719C136.364 8.93753 136.066 8.51756 135.723 8.25977C135.379 8.00221 134.893 7.83399 134.185 7.83398C133.415 7.83404 132.853 8.01091 132.434 8.2998C132.015 8.58844 131.657 9.0455 131.392 9.74805C130.837 11.2734 130.536 13.5945 130.536 16.7881V40.0664C130.536 42.6524 130.649 44.7109 130.878 46.2725L130.971 46.8223C131.204 48.0337 131.55 48.8122 131.946 49.2705L132.114 49.4395C132.53 49.8114 133.123 50.0342 134.009 50.0342C134.725 50.0341 135.235 49.8625 135.607 49.5879C135.982 49.3119 136.307 48.8666 136.535 48.1641C137.037 46.6224 137.317 43.9452 137.317 40.042V33.0859H145.844V39.9814C145.844 43.6234 145.512 46.7247 144.827 49.2764C144.145 51.8645 142.955 53.9234 141.168 55.335C139.357 56.7654 136.929 57.4102 133.983 57.4102H133.582C130.891 57.3495 128.591 56.6535 126.839 55.2754L126.835 55.2725C125.023 53.8335 123.767 51.7626 123.019 49.1475C122.279 46.5651 121.934 43.4695 121.934 39.8965V17.5127C121.934 15.0993 122.1 12.8953 122.425 10.8789C122.755 8.80251 123.356 6.99453 124.23 5.44824L124.233 5.44238C125.1 3.93143 126.283 2.74216 127.771 1.88867L128.073 1.72168C129.725 0.824022 131.778 0.4102 134.185 0.410156ZM92.5088 8.26562H86.7383V57.0205H78.1738V8.26562H72V1.01074H92.5088V8.26562ZM115.942 8.26562H105.774V24.9043H115.4V32.1592H105.774V49.7656H116.068V57.0205H97.1846V1.01074H115.942V8.26562ZM6.74902 57.0107H0V29.4219H6.74902V57.0107ZM38.6826 42.9551C38.6826 47.6112 37.8307 51.1224 36.1279 53.4629C34.4251 55.8157 31.8337 56.998 28.3789 56.998H28.3672L28.3789 57.0107C24.7268 57.0107 22.0621 55.9398 20.3594 53.7861C18.6689 51.6323 17.8174 48.4075 17.8174 44.1123V36.8916H24.4434V43.7139C24.4434 45.1207 24.5052 46.4032 24.6162 47.5859C24.7273 48.7686 25.06 49.7025 25.5781 50.4121C26.0963 51.1217 26.9725 51.4834 28.1816 51.4834C29.3909 51.4834 30.2425 51.1464 30.7607 50.4492C31.2788 49.752 31.5876 48.7812 31.7109 47.5488C31.8343 46.2914 31.8838 44.8595 31.8838 43.2285V1.01074H38.6826V42.9551ZM55.6729 19.6484L60.6211 1.01074H66.7285L58.7207 28.5498L67 57.0107H61.0898L55.2041 37.6631L50.0215 57.0107H43.8271V56.9736L52.0947 28.5127L44.0869 1.01074H50.0215L55.6729 19.6484ZM161.717 24.001H168.7V1.00098H177.29V56.7568H168.7V31.1592H161.717V56.7568H153.128V1.00098H161.717V24.001ZM134.185 2.41016C131.986 2.4102 130.289 2.792 129.02 3.48438L129.008 3.49023C127.717 4.17294 126.709 5.14705 125.971 6.43164C125.233 7.73567 124.7 9.31043 124.4 11.1953L124.399 11.1973C124.094 13.0946 123.934 15.191 123.934 17.5127V39.8965C123.934 43.3538 124.269 46.2505 124.94 48.5967C125.602 50.908 126.664 52.5812 128.075 53.7031L128.341 53.9023C129.703 54.8652 131.546 55.3857 133.958 55.3857H134.36C136.83 55.3301 138.656 54.7705 139.928 53.7656C141.29 52.6895 142.291 51.0528 142.895 48.7627L142.896 48.7578C143.521 46.4293 143.844 43.5148 143.844 39.9814V35.0859H139.317V40.042C139.317 43.9664 139.043 46.9183 138.437 48.7832C138.111 49.7838 137.579 50.6186 136.794 51.1973C136.007 51.7772 135.056 52.0341 134.009 52.0342C132.578 52.0342 131.342 51.6011 130.451 50.5996L130.445 50.5928C129.616 49.6418 129.149 48.2428 128.899 46.5674V46.5654C128.65 44.8659 128.536 42.6973 128.536 40.0664V16.7881C128.536 13.5138 128.839 10.9089 129.517 9.05176L129.52 9.04199C129.897 8.04152 130.478 7.21837 131.3 6.65234C132.121 6.08677 133.102 5.83404 134.185 5.83398C135.215 5.83399 136.154 6.08322 136.922 6.65918C137.69 7.23491 138.192 8.06478 138.483 9.05176C139.044 10.8455 139.292 13.4663 139.292 16.8125V21.8037H143.756V16.8486C143.756 14.6041 143.619 12.5812 143.327 10.7744L143.326 10.7676L143.325 10.7598C143.062 8.95588 142.576 7.448 141.881 6.21289L141.878 6.20703L141.874 6.2002C141.213 4.98548 140.285 4.07463 139.07 3.42871L139.059 3.42188C137.864 2.76578 136.38 2.41016 134.185 2.41016ZM74 6.26562H80.1738V55.0205H84.7383V6.26562H90.5088V3.01074H74V6.26562ZM99.1846 55.0205H114.068V51.7656H103.774V30.1592H113.4V26.9043H103.774V6.26562H113.942V3.01074H99.1846V55.0205ZM155.128 54.7568H159.717V29.1592H170.7V54.7568H175.29V3.00098H170.7V26.001H159.717V3.00098H155.128V54.7568ZM17.3984 6.45117H6.74902V23.9316H16.7314V29.4219H6.74902V23.9434H0V1.01074H17.3984V6.45117Z" fill="black
  "/>
</svg>
