<?xml version="1.0" encoding="UTF-8"?>
<svg id="Layer_4" data-name="Layer 4" xmlns="http://www.w3.org/2000/svg" viewBox="0 0 1920 1080">
  <rect x="-.2" y="-4.3" width="1920.4" height="1080" fill="none"/>
  <g>
    <path d="M1269.3,571.1c0-30-20.2-52.5-50.7-52.5s-49.2,22.6-49.2,52.5,19.3,52.8,49.2,52.8,50.7-22.9,50.7-52.8M1161.3,662.7l9.5-5.3c11,19.9,27,30.2,50.1,30.2s47.5-14.8,47.5-51.3v-33.8c-8.6,17.8-27.9,31.7-51.3,31.7-34.7,0-59.9-27.6-59.9-63.2s25.2-62.9,59.9-62.9,42.7,13.6,51.9,32.4l-.6-29.7h11.6v126.6c0,41.2-22.5,60.5-58.7,60.5s-49.5-15.1-59.9-35.3" fill="#00a1af"/>
    <path d="M1300.5,508.2h11.6l-.3,24.3c6.8-17.5,19.9-26.7,35.3-26.7s16,1.8,21.9,6.2l-5.6,9.5c-3.6-2.7-8.9-5-17.8-5-17.2,0-33.5,14.5-33.5,43.9v68.8h-11.6v-121h0Z" fill="#00a1af"/>
    <path d="M1473.1,568.4c0-30-20.5-52.5-50.7-52.5s-51.3,22.6-51.3,52.5,21.1,52.8,51.3,52.8,50.7-22.9,50.7-52.8M1359.2,568.4c0-34.7,27.9-62.9,63.2-62.9s62.6,28.2,62.6,62.9-27.3,63.2-62.6,63.2-63.2-28.5-63.2-63.2" fill="#00a1af"/>
    <path d="M1494.5,576.1v-67.9h11.6v67c0,29.4,11.9,45.7,39.2,45.7s39.2-16.3,39.2-45.7v-67h11.6v67.9c0,35.6-20.2,55.5-50.7,55.5s-50.7-19.9-50.7-55.5" fill="#00a1af"/>
    <path d="M1725.9,568.4c0-30-19.3-52.5-49.2-52.5s-50.7,22.5-50.7,52.5,20.2,52.8,50.7,52.8,49.2-22.9,49.2-52.8M1615.2,508.2h11.6l-.6,29.7c8.9-18.7,27.3-32.4,51.9-32.4s59.9,27.3,59.9,62.9-25.2,63.2-59.9,63.2-42.7-13.9-51.3-31.7v92.3h-11.6v-183.9h0Z" fill="#00a1af"/>
    <path d="M705.6,550.3c-.6-7.6-3.4-14.4-8.3-20.1-4.8-5.5-11.6-9.8-20.3-12.8-8.4-2.8-21.5-4.3-33.4-4.3s-20.8,1.5-28.9,4.4c-8.3,3-14.9,7.4-19.4,13.1-4.7,5.8-7,12.7-7,20.7h0c0,6.6,1.6,11.2,4.8,16,3.1,4.8,7.8,8.6,13.8,11.6,5.8,2.8,13.2,4.8,21.8,5.9l30.2,3.2c9.3,1.2,13.5,3,15.5,4.3,2.3,1.6,3.4,4.9,3.4,8.1h0c0,2.8-.9,5-2.8,6.9-2,2.1-5.2,3.7-9.5,4.9-4.6,1.2-10.3,1.9-17,1.9-11.2,0-17.1-1.4-23-4.2-5.5-2.5-8.6-6.1-9.7-10.8l-.6-2.6h-30.5l.4,3.8c1,8,4.2,13,9.5,18.6,5.2,5.6,12.4,9.8,21.5,12.7,7.8,2.4,17,3.8,27.5,4.1,1.5,0,3,0,4.5,0s5.7,0,7.1,0c9.9-.3,18.7-1.8,26.1-4.4,8.6-3,15.4-7.5,20.2-13.3,4.9-5.9,7.4-11,7.4-19h0c0-10.2-3.3-16.8-9.9-22.4-6.3-5.3-16.4-8.9-30.3-10.7l-32.4-3.3c-4.8-.5-8.8-1.4-11.7-2.5-2.6-1-4.5-2.3-5.6-3.7-1-1.3-1.5-4.1-1.5-6h0c0-2.8.8-6.1,2.6-8,1.9-2,4.9-3.6,8.9-4.8,4.3-1.2,8.7-1.9,15-1.9,9.9,0,17.8,1.5,23.5,4.3,5.3,2.7,8,7.2,8.7,11.7l.4,2.6h29.4l-.3-4.1h0Z" fill="#f60"/>
    <path d="M841.4,550.3c-.6-7.6-3.4-14.4-8.3-20.1-4.8-5.5-11.6-9.8-20.3-12.8-8.4-2.8-21.5-4.3-33.4-4.3s-20.8,1.5-28.9,4.4c-8.3,3-14.9,7.4-19.4,13.1-4.7,5.8-7,12.7-7,20.7h0c0,6.6,1.6,11.2,4.8,16,3.1,4.8,7.8,8.6,13.8,11.6,5.8,2.8,13.2,4.8,21.8,5.9l30.2,3.2c9.3,1.2,13.5,3,15.5,4.3,2.3,1.6,3.4,4.9,3.4,8.1h0c0,2.8-.9,5-2.8,6.9-2,2.1-5.2,3.7-9.5,4.9-4.6,1.2-10.3,1.9-17,1.9-11.2,0-17.1-1.4-23-4.2-5.5-2.5-8.6-6.1-9.7-10.8l-.6-2.6h-30.5l.4,3.8c1,8,4.2,13,9.5,18.6,5.2,5.6,12.4,9.8,21.5,12.7,7.8,2.4,17,3.8,27.5,4.1,1.5,0,3,0,4.5,0s5.7,0,7.1,0c9.9-.3,18.7-1.8,26.1-4.4,8.6-3,15.4-7.5,20.2-13.3,4.9-5.9,7.4-11,7.4-19h0c0-10.2-3.3-16.8-9.9-22.4-6.3-5.3-16.4-8.9-30.3-10.7l-32.4-3.3c-4.8-.5-8.8-1.4-11.7-2.5-2.6-1-4.5-2.3-5.6-3.7-1-1.3-1.5-4.1-1.5-6h0c0-2.8.8-6.1,2.6-8,1.9-2,4.9-3.6,8.9-4.8,4.3-1.2,8.7-1.9,15-1.9,9.9,0,17.8,1.5,23.5,4.3,5.3,2.7,8,7.2,8.7,11.7l.4,2.6h29.4l-.3-4.1h0Z" fill="#f60"/>
    <path d="M319.2,575.1h0v-3.5h0c-.7-16.3-6.3-30.3-16.2-40.5-11.6-11.9-29.8-18.2-50.9-18.2s-33.9,7.6-41.6,16.2v-53.2h-28.5v157h28.4v-11.2c10.3,9.3,25.6,14,42.6,14s38.2-4.4,49.9-16.6c9.9-10.3,15.5-24.2,16.2-40.2h0v-3.7h0ZM250.1,613.5c-8.3,0-14.6-1.5-21.1-4.7-12.4-6-18.5-19.3-18.5-33.7s9.9-34.1,26.2-37.8c4.4-1,8.3-1.5,13.5-1.5,12,0,22.1,3.6,29.1,10.4,7.1,6.8,10.8,17.7,10.8,29.1,0,22.9-16.2,38.2-40,38.2h0Z" fill="#f60"/>
    <path d="M994.4,575.2h0v-3.5h-.1c-.8-15.5-6.7-29.6-16.7-40-12-12.5-31.4-19.1-52.3-19.1s-39.2,6.6-51.2,19c-10.1,10.4-16,24.6-16.8,40.1h0v3.7h0v3.5h.1c.8,15.2,6.8,27.3,16.8,37.6,10.3,10.6,25.7,17,42.7,18.7.2,0,.4,0,.5,0,1,.1,2.1.2,3.1.2.3,0,.5,0,.8,0,1.3,0,2.7.1,4,.1h.4c1.2,0,3.3,0,4.5-.1.5,0,.9,0,1.4-.1.8,0,1.7-.1,2.5-.2.4,0,.7,0,1-.1.9-.1,1.9-.2,2.8-.3.1,0,.2,0,.3,0,15.5-2.2,29.6-8.4,39.2-18.3,10.5-10.8,16.5-23.5,16.9-39.6v-1.5h0v-.3h0s0,0,0,0ZM966.1,579.8h0c-2,19.9-18.4,33.4-40.8,33.7-22.4-.3-37.8-13.9-39.9-33.7-.5-4.5-.4-12,1.4-17.8h0c0,0,.1-.4.1-.4,4.4-16.1,17.8-26.5,38.4-26.5s35.2,10.5,39.4,26.9h0c1.7,5.8,1.9,13.2,1.4,17.7h0Z" fill="#f60"/>
    <path d="M1127.5,527c-8.6-8.9-23.7-13.4-39-13.4s-20.8.9-34.9,8.2c-4.7,2.4-9.6,6.5-13,10.1v-16.1h-28.8v117.2h28.8v-60.6c0-6.6,1.4-13.3,4.2-18.1,2.8-4.8,8.4-9.7,13.4-12.3,9.3-4.8,18.1-6,24.9-6s15.8,2.5,20.5,7.5c4.7,5,8.1,12.6,8.1,22.5v67h28.8v-69.3c0-15.5-4.4-27.9-13-36.8" fill="#f60"/>
    <path d="M563.4,610.5c-8.3,2.2-15.4,2.3-17.2,2.3h-1c-14.5,0-14.4-5.8-14.4-10.8v-62.3h38v-23.7h-38v-40.1h-28.4v40.1h-30.5v23.7h30.5v64.7c0,10.7,3.7,17.1,11.2,22.9,7.3,5.6,17.8,8.5,31.2,8.5h.1c1.7,0,21.7-.4,31.7-5.2l2.3-1.2-12.8-19.6-2.6.7h0Z" fill="#f60"/>
    <path d="M364.7,579.1h103.6v-2.1c0-.7,0-1.4,0-1.8-.4-14.5-3.2-30.6-16.8-44.1-11.8-11.7-32.2-18.4-51-18.4s-22.8,2.2-32,6.5c-3.6,1.7-7,3.7-10,6-1.2.9-2.3,1.8-3.3,2.7-2.5,2.2-4.9,4.8-7.1,7.5-.5.7-1,1.3-1.5,2-2,2.9-3.8,5.9-5.2,9.1-3.5,7.5-5.6,16.3-6,25.3h0v3.7h0v3.5h.1v1.4c0,.4.1.8.1,1.2,0,.4,0,.8.1,1.2v.9c.1.3.2.6.2.9,0,.5.1.9.2,1.4v.8c.1.3.2.5.2.7.1.6.2,1.2.3,1.7v.5c.1.2.2.4.2.6.1.7.3,1.5.5,2.1v.3c0,0,.1.3.2.5.2.8.4,1.5.7,2.3v.2c0,0,.1.3.2.4.3.9.5,1.7.8,2.3v.4c.4.8.7,1.6,1.1,2.4v.3c.4.8.8,1.6,1.2,2.5h0c.4.9.9,1.8,1.3,2.7h0c10.8,20.2,31.6,29.2,58.7,29.2s50.7-8.3,64-27.5l1.4-2-20.9-13.2-1.4,1.5c-10.7,11.5-19.5,19-43.1,19h-.8c-9.7-.1-15.4-2.8-22-7.8-.5-.4-.9-.7-1.3-1.1-.4-.4-.9-.7-1.3-1.1-.4-.4-.8-.7-1.1-1.1h0c-.4-.5-.8-.8-1.1-1.2h0c-.4-.5-.7-.9-1-1.3h0c-.3-.5-.6-.8-.9-1.2v-.2c-.4-.4-.7-.8-.9-1.1v-.3c-.4-.4-.7-.8-.9-1.1l-.2-.3c-.2-.4-.4-.8-.7-1.1l-.2-.4c-.2-.4-.4-.7-.5-1.1l-.3-.5h0c-.2-.4-.3-.7-.5-1l-.3-.7c-.1-.3-.3-.6-.4-.9,0-.1,0-.2-.1-.3l-.2-.5h0c0-.3-.2-.5-.3-.8,0-.1,0-.2-.1-.3h0c0,0-.2-.7-.2-.7h0c0-.3-.1-.5-.2-.7,0-.1,0-.3-.1-.5v-.6c-.2-.2-.3-.4-.3-.6,0-.2,0-.4-.1-.5v-.7c-.2-.2-.2-.4-.3-.5,0-.3,0-.5-.1-.7,0,0-.2-1.2-.2-2.6h0v-.9h-.1ZM368.3,554.2c.8-1.8,1.8-3.5,2.9-5.1.3-.4.6-.8,1-1.3.6-.7,1.2-1.4,1.8-2.1.6-.7,1.3-1.3,2-1.9.4-.4.9-.8,1.3-1.1.2-.1.4-.3.6-.4,1.6-1.2,3.3-2.2,5.2-3.1.5-.3,1.1-.5,1.6-.7,5.3-2.1,8.6-3.2,15.7-3.2,13.6,0,24.8,5.4,31.7,15.1,1.8,2.6,3.5,7,4.6,10.2.1.3.3.7.4,1h-70.9c0-.3.1-.6.2-1,.4-2,1.3-5,1.9-6.4" fill="#f60"/>
  </g>
</svg>