<?xml version="1.0" encoding="utf-8"?>
<!-- Generator: Adobe Illustrator 26.0.2, SVG Export Plug-In . SVG Version: 6.00 Build 0)  -->
<svg version="1.1" id="Capa_1" xmlns="http://www.w3.org/2000/svg" xmlns:xlink="http://www.w3.org/1999/xlink" x="0px" y="0px"
	 viewBox="0 0 164.3 237.1" style="enable-background:new 0 0 164.3 237.1;" xml:space="preserve">
<style type="text/css">
	.st0{fill:#F2F2F2;}
	.st1{fill:#FFFFFF;}
	.st2{fill:#87F96E;}
	.st3{fill:#062F4F;}
</style>
<g>
	<path class="st2" d="M89.6,6.1c-4.1-2.1-10.9-2.1-15,0L11.8,38.5C7.6,40.6,4.3,45.8,4.3,50v81.4c0,4.2,3.4,9.4,7.5,11.6l62.9,32.4
		c4.1,2.1,10.9,2.1,15,0l62.9-32.4c4.1-2.1,7.5-7.3,7.5-11.6V50c0-4.2-3.4-9.5-7.5-11.6L89.6,6.1z"/>
	<path class="st1" d="M121.1,87.9c0,10.2,0,43.7,0,43.7c0,2.1-1.7,4.7-3.7,5.7l-31.4,16c-2.1,1-5.4,1-7.5,0l-31.4-16
		c-2.1-1-3.7-3.6-3.7-5.7V87.9H121.1z"/>
	<g>
		<path class="st3" d="M7.8,211.9c-1.1-0.7-2-1.6-2.6-2.8c-0.6-1.2-0.9-2.6-0.9-4.3c0-1.6,0.3-3,1-4.3c0.6-1.2,1.5-2.2,2.7-2.9
			c1.1-0.7,2.5-1,3.9-1c0.8,0,1.6,0.1,2.4,0.3c0.8,0.2,1.5,0.6,2.1,1c0.4,0.3,0.7,0.5,0.8,0.8c0.2,0.2,0.2,0.5,0.2,0.8
			c0,0.3-0.1,0.5-0.2,0.7c-0.2,0.2-0.4,0.3-0.6,0.3c-0.2,0-0.3,0-0.5-0.1c-0.2-0.1-0.3-0.2-0.4-0.3c-0.1-0.1-0.2-0.1-0.2-0.2
			c-0.6-0.4-1.1-0.7-1.6-0.9c-0.5-0.2-1.1-0.3-1.9-0.3c-1.6,0-2.8,0.5-3.7,1.6c-0.9,1.1-1.3,2.5-1.3,4.4c0,1.9,0.4,3.4,1.3,4.4
			c0.9,1,2.1,1.6,3.7,1.6c0.7,0,1.4-0.1,1.9-0.3c0.5-0.2,1.1-0.5,1.6-0.9c0.2-0.2,0.5-0.3,0.7-0.4c0.2-0.1,0.4-0.2,0.5-0.2
			c0.2,0,0.4,0.1,0.6,0.3c0.2,0.2,0.2,0.4,0.2,0.7c0,0.3-0.1,0.5-0.2,0.8c-0.2,0.2-0.4,0.5-0.8,0.8c-0.6,0.4-1.3,0.7-2.2,1
			c-0.9,0.2-1.7,0.4-2.6,0.4C10.2,212.9,8.9,212.6,7.8,211.9z"/>
		<path class="st3" d="M28.8,197.7c0,0.3-0.1,0.6-0.3,0.8c-0.2,0.2-0.5,0.3-1,0.4l-1,0.1c-1.4,0.1-2.5,0.6-3.2,1.5
			c-0.7,0.9-1,1.9-1,3.1v7.9c0,0.4-0.1,0.8-0.4,1c-0.2,0.2-0.5,0.3-0.9,0.3c-0.4,0-0.7-0.1-1-0.3c-0.2-0.2-0.4-0.5-0.4-1v-13.6
			c0-0.4,0.1-0.7,0.4-1c0.3-0.2,0.6-0.3,0.9-0.3c0.3,0,0.6,0.1,0.9,0.3c0.2,0.2,0.4,0.5,0.4,0.9v1.8c0.5-0.9,1.1-1.7,1.9-2.2
			c0.8-0.5,1.8-0.8,2.9-0.9l0.5,0C28.4,196.6,28.8,196.9,28.8,197.7z"/>
		<path class="st3" d="M45.4,196.7c0.3,0,0.6,0.1,0.9,0.3c0.3,0.2,0.4,0.5,0.4,0.8c0,0.2,0,0.4-0.1,0.5l-9.1,19.6
			c-0.1,0.2-0.3,0.4-0.5,0.5c-0.2,0.1-0.4,0.2-0.6,0.2c-0.3,0-0.6-0.1-0.9-0.3c-0.2-0.2-0.4-0.5-0.4-0.8c0-0.2,0-0.3,0.1-0.5
			l2.3-4.9l-6.4-13.8c-0.1-0.2-0.1-0.3-0.1-0.5c0-0.3,0.1-0.6,0.4-0.8c0.3-0.2,0.6-0.4,1-0.4c0.2,0,0.4,0.1,0.6,0.2
			c0.2,0.1,0.4,0.3,0.5,0.5l5.4,12.1l5.4-12.1C44.5,196.9,44.9,196.7,45.4,196.7z"/>
		<path class="st3" d="M60.4,197.6c1.1,0.7,1.9,1.7,2.5,2.9c0.6,1.2,0.9,2.7,0.9,4.3c0,1.6-0.3,3.1-0.9,4.3
			c-0.6,1.2-1.4,2.2-2.4,2.8c-1,0.7-2.3,1-3.7,1c-1.2,0-2.3-0.3-3.2-0.8c-0.9-0.5-1.6-1.3-2.1-2.3v7.6c0,0.4-0.1,0.7-0.3,0.9
			c-0.2,0.2-0.5,0.3-1,0.3c-0.4,0-0.7-0.1-1-0.4c-0.2-0.2-0.4-0.5-0.4-0.9v-19.5c0-0.4,0.1-0.7,0.4-0.9c0.2-0.2,0.6-0.4,1-0.4
			c0.4,0,0.7,0.1,1,0.4c0.2,0.2,0.3,0.5,0.3,0.9v1.7c0.5-1,1.2-1.8,2.1-2.3c0.9-0.5,2-0.8,3.2-0.8C58.1,196.6,59.3,196.9,60.4,197.6
			z M59.8,209.2c0.8-1,1.3-2.5,1.3-4.4c0-1.9-0.4-3.4-1.3-4.4c-0.8-1.1-2-1.6-3.6-1.6c-1.5,0-2.7,0.5-3.5,1.6
			c-0.8,1-1.2,2.5-1.2,4.4c0,1.9,0.4,3.4,1.2,4.4c0.8,1,2,1.6,3.5,1.6C57.7,210.8,58.9,210.2,59.8,209.2z"/>
		<path class="st3" d="M76.7,211.8c0,0.4-0.1,0.6-0.4,0.8c-0.3,0.2-0.7,0.3-1.2,0.2l-0.9-0.1c-1.7-0.1-3-0.6-3.8-1.6
			c-0.8-0.9-1.2-2.3-1.2-4.1V199H67c-0.4,0-0.7-0.1-0.9-0.3c-0.2-0.2-0.3-0.4-0.3-0.7c0-0.3,0.1-0.6,0.3-0.8
			c0.2-0.2,0.5-0.3,0.9-0.3h2.2v-3.7c0-0.4,0.1-0.7,0.4-1c0.2-0.2,0.6-0.3,1-0.3c0.4,0,0.7,0.1,0.9,0.3c0.2,0.2,0.4,0.5,0.4,1v3.7
			h3.6c0.3,0,0.6,0.1,0.8,0.3c0.2,0.2,0.3,0.5,0.3,0.8c0,0.3-0.1,0.5-0.3,0.7c-0.2,0.2-0.5,0.3-0.8,0.3h-3.6v8.2
			c0,1.2,0.2,2,0.7,2.6c0.5,0.5,1.2,0.8,2.2,0.9l0.9,0.1C76.3,210.9,76.7,211.2,76.7,211.8z"/>
		<path class="st3" d="M82.4,211.9c-1.1-0.7-2-1.6-2.6-2.9c-0.6-1.2-0.9-2.7-0.9-4.3c0-1.6,0.3-3.1,0.9-4.3c0.6-1.2,1.5-2.2,2.6-2.9
			c1.1-0.7,2.4-1,3.9-1s2.8,0.3,3.9,1c1.1,0.7,2,1.6,2.6,2.9c0.6,1.2,0.9,2.7,0.9,4.3c0,1.6-0.3,3.1-0.9,4.3
			c-0.6,1.2-1.5,2.2-2.6,2.9c-1.1,0.7-2.5,1-3.9,1S83.5,212.6,82.4,211.9z M89.9,209.2c0.8-1,1.2-2.5,1.2-4.5c0-1.9-0.4-3.4-1.3-4.4
			c-0.8-1-2-1.6-3.6-1.6c-1.5,0-2.7,0.5-3.6,1.6c-0.8,1-1.3,2.5-1.3,4.4c0,1.9,0.4,3.4,1.2,4.5c0.8,1,2,1.6,3.6,1.6
			C87.9,210.8,89.1,210.2,89.9,209.2z"/>
		<path class="st3" d="M99.8,212c-1.2-0.7-2.2-1.6-2.8-2.8c-0.7-1.2-1-2.7-1-4.3c0-1.7,0.3-3.1,1-4.4c0.7-1.3,1.7-2.2,3-2.9
			c1.3-0.7,2.7-1,4.4-1c0.9,0,1.7,0.1,2.6,0.4c0.9,0.2,1.7,0.6,2.3,1c0.7,0.4,1,1,1,1.8c0,0.6-0.1,1-0.4,1.4c-0.3,0.4-0.6,0.5-1,0.5
			c-0.3,0-0.5,0-0.8-0.1c-0.2-0.1-0.6-0.2-1-0.4c-0.5-0.2-0.9-0.4-1.2-0.5c-0.4-0.1-0.8-0.2-1.2-0.2c-1.2,0-2.1,0.4-2.8,1.1
			c-0.6,0.8-1,1.9-1,3.3c0,1.5,0.3,2.6,1,3.4c0.6,0.8,1.6,1.2,2.8,1.2c0.5,0,0.9-0.1,1.2-0.2c0.3-0.1,0.8-0.3,1.3-0.6
			c0.4-0.2,0.7-0.3,1-0.4c0.2-0.1,0.5-0.1,0.8-0.1c0.4,0,0.7,0.2,1,0.5c0.3,0.4,0.4,0.8,0.4,1.4c0,0.8-0.3,1.4-1,1.8
			c-0.7,0.4-1.5,0.8-2.4,1c-0.9,0.2-1.9,0.4-2.8,0.4C102.5,213,101,212.6,99.8,212z"/>
		<path class="st3" d="M125.4,198.1c1.1,1.1,1.7,2.9,1.7,5.2v7.3c0,0.7-0.2,1.3-0.6,1.7c-0.4,0.4-1,0.6-1.7,0.6
			c-0.7,0-1.2-0.2-1.7-0.6c-0.4-0.4-0.6-1-0.6-1.6v-0.2c-0.3,0.8-0.9,1.4-1.6,1.9c-0.8,0.5-1.6,0.7-2.6,0.7c-1.1,0-2.1-0.2-2.9-0.6
			c-0.9-0.4-1.6-1-2.1-1.8c-0.5-0.8-0.8-1.6-0.8-2.6c0-1.2,0.3-2.1,0.9-2.7c0.6-0.7,1.5-1.2,2.9-1.5c1.3-0.3,3.1-0.5,5.4-0.5h0.8
			v-0.6c0-0.9-0.2-1.6-0.6-2c-0.4-0.4-1.1-0.6-2-0.6c-0.9,0-2.3,0.3-4,1c-0.5,0.2-0.9,0.4-1.3,0.4c-0.5,0-0.9-0.2-1.1-0.5
			c-0.3-0.3-0.4-0.8-0.4-1.3c0-0.4,0.1-0.8,0.3-1.1c0.2-0.3,0.5-0.5,0.9-0.8c0.8-0.4,1.7-0.7,2.8-1c1.1-0.2,2.2-0.4,3.2-0.4
			C122.6,196.4,124.3,197,125.4,198.1z M121.6,208.6c0.6-0.6,0.9-1.5,0.9-2.5v-0.5h-0.5c-1.7,0-3,0.1-3.7,0.4c-0.7,0.3-1,0.8-1,1.5
			c0,0.6,0.2,1.1,0.6,1.5c0.4,0.4,0.9,0.6,1.5,0.6C120.2,209.6,121,209.3,121.6,208.6z"/>
		<path class="st3" d="M138.2,194.3c-0.4,0.5-0.6,1.1-0.6,2v0.5h2.3c1.5,0,2.2,0.6,2.2,1.8c0,1.2-0.7,1.8-2.2,1.8h-2.3v10.1
			c0,0.8-0.2,1.3-0.7,1.7c-0.5,0.4-1,0.6-1.7,0.6c-0.7,0-1.3-0.2-1.8-0.6c-0.5-0.4-0.7-1-0.7-1.7v-10.1h-1.3c-1.4,0-2.2-0.6-2.2-1.8
			c0-1.2,0.7-1.8,2.2-1.8h1.3c0-2.1,0.6-3.7,1.7-4.9c1.1-1.2,2.7-1.9,4.7-2l0.8-0.1l0.6,0c1.5,0,2.2,0.6,2.2,1.7
			c0,1.1-0.6,1.7-1.9,1.8l-0.8,0.1C139.2,193.5,138.6,193.8,138.2,194.3z"/>
		<path class="st3" d="M159.5,208.5c0.3,0.3,0.4,0.8,0.4,1.3c0,0.4-0.1,0.7-0.3,1c-0.2,0.3-0.5,0.6-0.9,0.8c-0.7,0.4-1.6,0.7-2.6,1
			c-1,0.2-1.9,0.4-2.7,0.4c-1.7,0-3.2-0.3-4.5-1c-1.3-0.7-2.3-1.6-3-2.9c-0.7-1.2-1-2.7-1-4.4c0-1.6,0.3-3,1-4.3
			c0.7-1.2,1.6-2.2,2.8-2.9c1.2-0.7,2.5-1,4-1c1.4,0,2.7,0.3,3.8,1c1.1,0.6,1.9,1.5,2.5,2.7c0.6,1.2,0.9,2.5,0.9,4.1
			c0,0.5-0.1,0.8-0.3,1.1c-0.2,0.2-0.5,0.4-1,0.4h-9c0.2,1.3,0.5,2.2,1.2,2.8c0.6,0.6,1.5,0.9,2.7,0.9c0.6,0,1.2-0.1,1.7-0.2
			c0.5-0.2,1-0.4,1.6-0.6c0.3-0.1,0.6-0.2,0.9-0.3c0.3-0.1,0.5-0.1,0.7-0.1C158.9,208,159.3,208.1,159.5,208.5z M150.7,200.7
			c-0.6,0.6-0.9,1.4-1,2.6h6.2c-0.1-1.1-0.3-2-0.9-2.6c-0.5-0.6-1.2-0.9-2.1-0.9S151.3,200.1,150.7,200.7z M152.9,194.9
			c-0.3,0-0.6-0.1-0.9-0.4c-0.2-0.2-0.4-0.5-0.4-0.8c0-0.3,0.1-0.6,0.3-0.8l2.8-3.7c0.5-0.7,1.2-1.1,1.9-1.1c0.5,0,1,0.2,1.4,0.6
			c0.4,0.4,0.6,0.8,0.6,1.4c0,0.6-0.3,1.2-1,1.7l-3.9,2.9C153.5,194.8,153.2,194.9,152.9,194.9z"/>
	</g>
	<g>
		<path class="st3" d="M76.7,229c0.3,0.3,0.4,0.8,0.4,1.3c0,0.7-0.2,1.3-0.7,1.6c-0.5,0.4-1.1,0.6-2,0.6h-2.9c-0.1,0-0.3,0-0.4-0.1
			c-0.1-0.1-0.1-0.2-0.1-0.3v-7.2c0-0.1,0-0.3,0.1-0.3c0.1-0.1,0.2-0.1,0.4-0.1h2.8c0.8,0,1.5,0.2,2,0.6c0.5,0.4,0.7,0.9,0.7,1.6
			c0,0.4-0.1,0.8-0.3,1.1c-0.2,0.3-0.5,0.6-1,0.7C76.1,228.4,76.5,228.7,76.7,229z M72,228h2.2c0.6,0,1.1-0.1,1.4-0.4
			c0.3-0.2,0.5-0.6,0.5-1.1c0-0.9-0.6-1.4-1.9-1.4H72V228z M75.7,231.3c0.3-0.2,0.5-0.6,0.5-1.1c0-1-0.6-1.5-1.9-1.5H72v3h2.4
			C75,231.7,75.4,231.6,75.7,231.3z"/>
		<path class="st3" d="M85.3,224.3c0.1,0,0.2,0,0.3,0.1c0.1,0.1,0.1,0.2,0.1,0.3c0,0.1,0,0.2-0.1,0.3l-2.8,3.6v3.5
			c0,0.2,0,0.3-0.1,0.4c-0.1,0.1-0.2,0.1-0.3,0.1c-0.1,0-0.3,0-0.3-0.1c-0.1-0.1-0.1-0.2-0.1-0.4v-3.5L79,225
			c-0.1-0.1-0.1-0.2-0.1-0.3c0-0.1,0-0.2,0.1-0.3c0.1-0.1,0.2-0.1,0.3-0.1c0.1,0,0.2,0.1,0.3,0.2l2.6,3.4l2.6-3.4
			C85,224.3,85.2,224.3,85.3,224.3z"/>
		<path class="st3" d="M91.7,232.4c-0.1-0.1-0.1-0.2-0.1-0.3v-7.2c0-0.1,0-0.3,0.1-0.3c0.1-0.1,0.2-0.1,0.4-0.1h4.3
			c0.1,0,0.2,0,0.3,0.1c0.1,0.1,0.1,0.2,0.1,0.3c0,0.1,0,0.2-0.1,0.3c-0.1,0.1-0.2,0.1-0.3,0.1h-3.9v2.8h3.6c0.1,0,0.2,0,0.3,0.1
			s0.1,0.2,0.1,0.3c0,0.1,0,0.2-0.1,0.3s-0.2,0.1-0.3,0.1h-3.6v3h3.9c0.1,0,0.2,0,0.3,0.1c0.1,0.1,0.1,0.2,0.1,0.3
			c0,0.1,0,0.2-0.1,0.3c-0.1,0.1-0.2,0.1-0.3,0.1h-4.3C91.9,232.5,91.8,232.4,91.7,232.4z"/>
		<path class="st3" d="M102,232.4c-0.1-0.1-0.1-0.2-0.1-0.4v-6.9h-2.5c-0.1,0-0.2,0-0.3-0.1c-0.1-0.1-0.1-0.2-0.1-0.3
			c0-0.1,0-0.2,0.1-0.3c0.1-0.1,0.2-0.1,0.3-0.1h5.9c0.1,0,0.2,0,0.3,0.1c0.1,0.1,0.1,0.2,0.1,0.3c0,0.1,0,0.2-0.1,0.3
			c-0.1,0.1-0.2,0.1-0.3,0.1h-2.5v6.9c0,0.1,0,0.3-0.1,0.4c-0.1,0.1-0.2,0.1-0.3,0.1C102.2,232.5,102.1,232.5,102,232.4z"/>
		<path class="st3" d="M115.2,224.4c0.1,0.1,0.1,0.2,0.1,0.4v7.3c0,0.1,0,0.3-0.1,0.4c-0.1,0.1-0.2,0.1-0.3,0.1
			c-0.1,0-0.3,0-0.3-0.1c-0.1-0.1-0.1-0.2-0.1-0.4v-3.3h-4.9v3.3c0,0.1,0,0.3-0.1,0.4c-0.1,0.1-0.2,0.1-0.3,0.1
			c-0.1,0-0.3,0-0.3-0.1c-0.1-0.1-0.1-0.2-0.1-0.4v-7.3c0-0.1,0-0.3,0.1-0.4c0.1-0.1,0.2-0.1,0.3-0.1c0.1,0,0.3,0,0.3,0.1
			c0.1,0.1,0.1,0.2,0.1,0.4v3.2h4.9v-3.2c0-0.1,0-0.3,0.1-0.4c0.1-0.1,0.2-0.1,0.3-0.1C115,224.3,115.1,224.3,115.2,224.4z"/>
		<path class="st3" d="M119.2,232.4c-0.1-0.1-0.1-0.2-0.1-0.4v-7.3c0-0.1,0-0.3,0.1-0.4c0.1-0.1,0.2-0.1,0.3-0.1
			c0.1,0,0.3,0,0.3,0.1s0.1,0.2,0.1,0.4v7.3c0,0.1,0,0.3-0.1,0.4c-0.1,0.1-0.2,0.1-0.3,0.1C119.4,232.5,119.3,232.5,119.2,232.4z"/>
		<path class="st3" d="M125.2,232.1c-0.6-0.3-1-0.8-1.3-1.4c-0.3-0.6-0.5-1.4-0.5-2.2c0-0.8,0.2-1.6,0.5-2.2s0.7-1.1,1.3-1.4
			c0.6-0.3,1.2-0.5,2-0.5c0.5,0,1,0.1,1.5,0.2c0.5,0.2,0.9,0.4,1.2,0.7c0.1,0.1,0.2,0.3,0.2,0.4c0,0.1,0,0.2-0.1,0.3
			c-0.1,0.1-0.1,0.1-0.2,0.1c-0.1,0-0.2,0-0.3-0.1c-0.4-0.3-0.7-0.5-1.1-0.6c-0.3-0.1-0.7-0.2-1.1-0.2c-0.9,0-1.6,0.3-2.1,0.9
			c-0.5,0.6-0.7,1.4-0.7,2.5c0,1.1,0.2,1.9,0.7,2.5c0.5,0.6,1.2,0.9,2.1,0.9c0.4,0,0.8-0.1,1.1-0.2c0.3-0.1,0.7-0.3,1.1-0.6
			c0.1-0.1,0.2-0.1,0.3-0.1c0.1,0,0.2,0,0.2,0.1s0.1,0.2,0.1,0.3c0,0.2-0.1,0.3-0.2,0.4c-0.3,0.3-0.7,0.5-1.2,0.7
			c-0.5,0.2-0.9,0.2-1.5,0.2C126.4,232.6,125.8,232.4,125.2,232.1z"/>
		<path class="st3" d="M139.9,224.4c0.1,0.1,0.1,0.2,0.1,0.4v7.3c0,0.1,0,0.3-0.1,0.4c-0.1,0.1-0.2,0.1-0.3,0.1
			c-0.1,0-0.3,0-0.3-0.1c-0.1-0.1-0.1-0.2-0.1-0.4v-3.3h-4.9v3.3c0,0.1,0,0.3-0.1,0.4c-0.1,0.1-0.2,0.1-0.3,0.1
			c-0.1,0-0.3,0-0.3-0.1c-0.1-0.1-0.1-0.2-0.1-0.4v-7.3c0-0.1,0-0.3,0.1-0.4c0.1-0.1,0.2-0.1,0.3-0.1c0.1,0,0.3,0,0.3,0.1
			s0.1,0.2,0.1,0.4v3.2h4.9v-3.2c0-0.1,0-0.3,0.1-0.4s0.2-0.1,0.3-0.1C139.7,224.3,139.9,224.3,139.9,224.4z"/>
		<path class="st3" d="M144.6,231.7c-0.5-0.6-0.8-1.4-0.8-2.5v-4.5c0-0.1,0-0.3,0.1-0.4c0.1-0.1,0.2-0.1,0.3-0.1
			c0.1,0,0.3,0,0.3,0.1s0.1,0.2,0.1,0.4v4.6c0,0.8,0.2,1.4,0.6,1.8c0.4,0.4,1,0.6,1.7,0.6c0.8,0,1.3-0.2,1.7-0.6
			c0.4-0.4,0.6-1,0.6-1.8v-4.6c0-0.1,0-0.3,0.1-0.4s0.2-0.1,0.3-0.1c0.1,0,0.3,0,0.3,0.1s0.1,0.2,0.1,0.4v4.5c0,1.1-0.3,1.9-0.8,2.4
			c-0.6,0.6-1.4,0.8-2.4,0.8C145.9,232.6,145.1,232.3,144.6,231.7z"/>
		<path class="st3" d="M159.6,229c0.3,0.3,0.4,0.8,0.4,1.3c0,0.7-0.2,1.3-0.7,1.6s-1.1,0.6-2,0.6h-2.9c-0.1,0-0.3,0-0.4-0.1
			c-0.1-0.1-0.1-0.2-0.1-0.3v-7.2c0-0.1,0-0.3,0.1-0.3c0.1-0.1,0.2-0.1,0.4-0.1h2.8c0.8,0,1.5,0.2,2,0.6c0.5,0.4,0.7,0.9,0.7,1.6
			c0,0.4-0.1,0.8-0.3,1.1c-0.2,0.3-0.5,0.6-1,0.7C159,228.4,159.4,228.7,159.6,229z M154.9,228h2.2c0.6,0,1.1-0.1,1.4-0.4
			c0.3-0.2,0.5-0.6,0.5-1.1c0-0.9-0.6-1.4-1.9-1.4h-2.2V228z M158.6,231.3c0.3-0.2,0.5-0.6,0.5-1.1c0-1-0.6-1.5-1.9-1.5h-2.4v3h2.4
			C157.9,231.7,158.3,231.6,158.6,231.3z"/>
	</g>
	<circle class="st3" cx="103" cy="119.9" r="4.2"/>
	<circle class="st3" cx="61.3" cy="119.9" r="4.2"/>
	<path class="st3" d="M121.1,87.9c0,10.2,0,43.7,0,43.7c0,2.1-1.7,4.7-3.7,5.7l-31.4,16c-2.1,1-5.4,1-7.5,0l-31.4-16
		c-2.1-1-3.7-3.6-3.7-5.7V87.9h-5.6v46.6c0,2.4,1.9,5.3,4.3,6.5l35.9,18.3c2.4,1.2,6.2,1.2,8.6,0l35.9-18.3c2.4-1.2,4.3-4.1,4.3-6.5
		V87.9H121.1z"/>
	
		<rect x="33.5" y="119.9" transform="matrix(-1.836970e-16 1 -1 -1.836970e-16 157.5825 85.0657)" class="st3" width="5.6" height="2.8"/>
	
		<rect x="32.1" y="93.5" transform="matrix(-1.836970e-16 1 -1 -1.836970e-16 131.1598 61.4244)" class="st3" width="5.6" height="5.6"/>
	<g>
		<circle class="st3" cx="34.9" cy="121.3" r="2.8"/>
		<circle class="st3" cx="34.7" cy="121.3" r="2.8"/>
		<circle class="st3" cx="34.5" cy="121.3" r="2.8"/>
		<circle class="st3" cx="34.3" cy="121.3" r="2.8"/>
		<circle class="st3" cx="34.1" cy="121.3" r="2.8"/>
		<circle class="st3" cx="33.9" cy="121.3" r="2.8"/>
		<circle class="st3" cx="33.8" cy="121.3" r="2.8"/>
		<circle class="st3" cx="33.6" cy="121.3" r="2.8"/>
		<circle class="st3" cx="33.4" cy="121.3" r="2.8"/>
		<circle class="st3" cx="33.2" cy="121.2" r="2.8"/>
		<circle class="st3" cx="33.1" cy="121.2" r="2.8"/>
		<circle class="st3" cx="32.9" cy="121.2" r="2.8"/>
		<circle class="st3" cx="32.7" cy="121.2" r="2.8"/>
		<circle class="st3" cx="32.6" cy="121.2" r="2.8"/>
		<circle class="st3" cx="32.4" cy="121.1" r="2.8"/>
		<circle class="st3" cx="32.3" cy="121.1" r="2.8"/>
		<circle class="st3" cx="32.1" cy="121.1" r="2.8"/>
		<circle class="st3" cx="31.9" cy="121" r="2.8"/>
		<circle class="st3" cx="31.8" cy="121" r="2.8"/>
		<circle class="st3" cx="31.6" cy="121" r="2.8"/>
		<circle class="st3" cx="31.5" cy="120.9" r="2.8"/>
		<circle class="st3" cx="31.3" cy="120.9" r="2.8"/>
		<circle class="st3" cx="31.2" cy="120.8" r="2.8"/>
		<circle class="st3" cx="31.1" cy="120.8" r="2.8"/>
		<circle class="st3" cx="30.9" cy="120.8" r="2.8"/>
		<circle class="st3" cx="30.8" cy="120.7" r="2.8"/>
		<circle class="st3" cx="30.6" cy="120.7" r="2.8"/>
		<circle class="st3" cx="30.5" cy="120.6" r="2.8"/>
		<circle class="st3" cx="30.4" cy="120.6" r="2.8"/>
		<circle class="st3" cx="30.2" cy="120.5" r="2.8"/>
		<circle class="st3" cx="30.1" cy="120.5" r="2.8"/>
		<circle class="st3" cx="30" cy="120.4" r="2.8"/>
		<circle class="st3" cx="29.8" cy="120.4" r="2.8"/>
		<circle class="st3" cx="29.7" cy="120.3" r="2.8"/>
		<circle class="st3" cx="29.6" cy="120.2" r="2.8"/>
		<circle class="st3" cx="29.5" cy="120.2" r="2.8"/>
		<circle class="st3" cx="29.3" cy="120.1" r="2.8"/>
		<circle class="st3" cx="29.2" cy="120.1" r="2.8"/>
		<circle class="st3" cx="29.1" cy="120" r="2.8"/>
		<circle class="st3" cx="29" cy="119.9" r="2.8"/>
		<circle class="st3" cx="28.9" cy="119.9" r="2.8"/>
		<circle class="st3" cx="28.8" cy="119.8" r="2.8"/>
		<circle class="st3" cx="28.7" cy="119.7" r="2.8"/>
		<circle class="st3" cx="28.6" cy="119.7" r="2.8"/>
		<circle class="st3" cx="28.4" cy="119.6" r="2.8"/>
		<circle class="st3" cx="28.3" cy="119.5" r="2.8"/>
		<circle class="st3" cx="28.2" cy="119.4" r="2.8"/>
		<circle class="st3" cx="28.1" cy="119.4" r="2.8"/>
		<circle class="st3" cx="28" cy="119.3" r="2.8"/>
		<circle class="st3" cx="27.9" cy="119.2" r="2.8"/>
		<circle class="st3" cx="27.8" cy="119.1" r="2.8"/>
		<circle class="st3" cx="27.7" cy="119.1" r="2.8"/>
		<circle class="st3" cx="27.6" cy="119" r="2.8"/>
		<circle class="st3" cx="27.5" cy="118.9" r="2.8"/>
		<circle class="st3" cx="27.5" cy="118.8" r="2.8"/>
		<circle class="st3" cx="27.4" cy="118.8" r="2.8"/>
		<circle class="st3" cx="27.3" cy="118.7" r="2.8"/>
		<circle class="st3" cx="27.2" cy="118.6" r="2.8"/>
		<circle class="st3" cx="27.1" cy="118.5" r="2.8"/>
		<circle class="st3" cx="27" cy="118.4" r="2.8"/>
		<circle class="st3" cx="26.9" cy="118.3" r="2.8"/>
		<circle class="st3" cx="26.9" cy="118.2" r="2.8"/>
		<circle class="st3" cx="26.8" cy="118.2" r="2.8"/>
		<circle class="st3" cx="26.7" cy="118.1" r="2.8"/>
		<circle class="st3" cx="26.6" cy="118" r="2.8"/>
		<circle class="st3" cx="26.5" cy="117.9" r="2.8"/>
		<circle class="st3" cx="26.5" cy="117.8" r="2.8"/>
		<circle class="st3" cx="26.4" cy="117.7" r="2.8"/>
		<circle class="st3" cx="26.3" cy="117.6" r="2.8"/>
		<circle class="st3" cx="26.3" cy="117.5" r="2.8"/>
		<circle class="st3" cx="26.2" cy="117.5" r="2.8"/>
		<circle class="st3" cx="26.1" cy="117.4" r="2.8"/>
		<circle class="st3" cx="26" cy="117.3" r="2.8"/>
		<circle class="st3" cx="26" cy="117.2" r="2.8"/>
		<circle class="st3" cx="25.9" cy="117.1" r="2.8"/>
		<circle class="st3" cx="25.9" cy="117" r="2.8"/>
		<circle class="st3" cx="25.8" cy="116.9" r="2.8"/>
		<circle class="st3" cx="25.7" cy="116.8" r="2.8"/>
		<circle class="st3" cx="25.7" cy="116.7" r="2.8"/>
		<circle class="st3" cx="25.6" cy="116.6" r="2.8"/>
		<circle class="st3" cx="25.6" cy="116.5" r="2.8"/>
		<circle class="st3" cx="25.5" cy="116.4" r="2.8"/>
		<circle class="st3" cx="25.4" cy="116.3" r="2.8"/>
		<circle class="st3" cx="25.4" cy="116.2" r="2.8"/>
		<circle class="st3" cx="25.3" cy="116.2" r="2.8"/>
		<circle class="st3" cx="25.3" cy="116.1" r="2.8"/>
		<circle class="st3" cx="25.2" cy="116" r="2.8"/>
		<circle class="st3" cx="25.2" cy="115.9" r="2.8"/>
		<circle class="st3" cx="25.1" cy="115.8" r="2.8"/>
		<circle class="st3" cx="25.1" cy="115.7" r="2.8"/>
		<circle class="st3" cx="25" cy="115.6" r="2.8"/>
		<circle class="st3" cx="25" cy="115.5" r="2.8"/>
		<circle class="st3" cx="25" cy="115.4" r="2.8"/>
		<circle class="st3" cx="24.9" cy="115.3" r="2.8"/>
		<circle class="st3" cx="24.9" cy="115.2" r="2.8"/>
		<circle class="st3" cx="24.8" cy="115.1" r="2.8"/>
		<circle class="st3" cx="24.8" cy="115" r="2.8"/>
		<circle class="st3" cx="24.8" cy="114.9" r="2.8"/>
		<circle class="st3" cx="24.7" cy="114.8" r="2.8"/>
		<circle class="st3" cx="24.7" cy="114.7" r="2.8"/>
		<circle class="st3" cx="24.6" cy="114.6" r="2.8"/>
		<circle class="st3" cx="24.6" cy="114.6" r="2.8"/>
		<circle class="st3" cx="24.6" cy="114.5" r="2.8"/>
		<circle class="st3" cx="24.5" cy="114.4" r="2.8"/>
		<circle class="st3" cx="24.5" cy="114.3" r="2.8"/>
		<circle class="st3" cx="24.5" cy="114.2" r="2.8"/>
		<circle class="st3" cx="24.4" cy="114.1" r="2.8"/>
		<circle class="st3" cx="24.4" cy="114" r="2.8"/>
		<circle class="st3" cx="24.4" cy="113.9" r="2.8"/>
		<circle class="st3" cx="24.4" cy="113.8" r="2.8"/>
		<circle class="st3" cx="24.3" cy="113.7" r="2.8"/>
		<circle class="st3" cx="24.3" cy="113.6" r="2.8"/>
		<circle class="st3" cx="24.3" cy="113.6" r="2.8"/>
		<circle class="st3" cx="24.3" cy="113.5" r="2.8"/>
		<circle class="st3" cx="24.2" cy="113.4" r="2.8"/>
		<circle class="st3" cx="24.2" cy="113.3" r="2.8"/>
		<circle class="st3" cx="24.2" cy="113.2" r="2.8"/>
		<circle class="st3" cx="24.2" cy="113.1" r="2.8"/>
		<circle class="st3" cx="24.1" cy="113" r="2.8"/>
		<circle class="st3" cx="24.1" cy="113" r="2.8"/>
		<circle class="st3" cx="24.1" cy="112.9" r="2.8"/>
		<circle class="st3" cx="24.1" cy="112.8" r="2.8"/>
		<circle class="st3" cx="24.1" cy="112.7" r="2.8"/>
		<circle class="st3" cx="24" cy="112.6" r="2.8"/>
		<circle class="st3" cx="24" cy="112.6" r="2.8"/>
		<circle class="st3" cx="24" cy="112.5" r="2.8"/>
		<circle class="st3" cx="24" cy="112.4" r="2.8"/>
		<circle class="st3" cx="24" cy="112.3" r="2.8"/>
		<circle class="st3" cx="24" cy="112.2" r="2.8"/>
		<circle class="st3" cx="24" cy="112.2" r="2.8"/>
		<circle class="st3" cx="23.9" cy="112.1" r="2.8"/>
		<circle class="st3" cx="23.9" cy="112" r="2.8"/>
		<circle class="st3" cx="23.9" cy="112" r="2.8"/>
		<circle class="st3" cx="23.9" cy="111.9" r="2.8"/>
		<circle class="st3" cx="23.9" cy="111.8" r="2.8"/>
		<circle class="st3" cx="23.9" cy="111.7" r="2.8"/>
		<circle class="st3" cx="23.9" cy="111.7" r="2.8"/>
		<circle class="st3" cx="23.9" cy="111.6" r="2.8"/>
		<circle class="st3" cx="23.9" cy="111.5" r="2.8"/>
		<circle class="st3" cx="23.8" cy="111.5" r="2.8"/>
		<circle class="st3" cx="23.8" cy="111.4" r="2.8"/>
		<circle class="st3" cx="23.8" cy="111.4" r="2.8"/>
		<circle class="st3" cx="23.8" cy="111.3" r="2.8"/>
		<circle class="st3" cx="23.8" cy="111.2" r="2.8"/>
		<circle class="st3" cx="23.8" cy="111.2" r="2.8"/>
		<circle class="st3" cx="23.8" cy="111.1" r="2.8"/>
		<circle class="st3" cx="23.8" cy="111.1" r="2.8"/>
		<circle class="st3" cx="23.8" cy="111" r="2.8"/>
		<circle class="st3" cx="23.8" cy="111" r="2.8"/>
		<circle class="st3" cx="23.8" cy="110.9" r="2.8"/>
		<circle class="st3" cx="23.8" cy="110.9" r="2.8"/>
		<circle class="st3" cx="23.8" cy="110.8" r="2.8"/>
		<circle class="st3" cx="23.8" cy="110.8" r="2.8"/>
		<circle class="st3" cx="23.8" cy="110.7" r="2.8"/>
		<circle class="st3" cx="23.8" cy="110.7" r="2.8"/>
		<circle class="st3" cx="23.8" cy="110.6" r="2.8"/>
		<circle class="st3" cx="23.8" cy="110.6" r="2.8"/>
		<circle class="st3" cx="23.8" cy="110.6" r="2.8"/>
		<circle class="st3" cx="23.8" cy="110.5" r="2.8"/>
		<circle class="st3" cx="23.8" cy="110.5" r="2.8"/>
		<circle class="st3" cx="23.8" cy="110.5" r="2.8"/>
		<circle class="st3" cx="23.7" cy="110.4" r="2.8"/>
		<circle class="st3" cx="23.7" cy="110.4" r="2.8"/>
		<circle class="st3" cx="23.7" cy="110.4" r="2.8"/>
		<circle class="st3" cx="23.7" cy="110.4" r="2.8"/>
		<circle class="st3" cx="23.7" cy="110.3" r="2.8"/>
		<circle class="st3" cx="23.7" cy="110.3" r="2.8"/>
		<circle class="st3" cx="23.7" cy="110.3" r="2.8"/>
		<circle class="st3" cx="23.7" cy="110.3" r="2.8"/>
		<circle class="st3" cx="23.7" cy="110.3" r="2.8"/>
		<circle class="st3" cx="23.7" cy="110.2" r="2.8"/>
		<circle class="st3" cx="23.7" cy="110.2" r="2.8"/>
		<circle class="st3" cx="23.7" cy="110.2" r="2.8"/>
		<circle class="st3" cx="23.7" cy="110.2" r="2.8"/>
		<circle class="st3" cx="23.7" cy="110.2" r="2.8"/>
		<circle class="st3" cx="23.7" cy="110.2" r="2.8"/>
		<circle class="st3" cx="23.7" cy="110.2" r="2.8"/>
		<circle class="st3" cx="23.7" cy="110.2" r="2.8"/>
		<circle class="st3" cx="23.7" cy="110.2" r="2.8"/>
		<circle class="st3" cx="23.7" cy="110.2" r="2.8"/>
		<circle class="st3" cx="23.7" cy="110.2" r="2.8"/>
		<circle class="st3" cx="23.7" cy="110.1" r="2.8"/>
		<circle class="st3" cx="23.7" cy="110.1" r="2.8"/>
		<circle class="st3" cx="23.7" cy="110.1" r="2.8"/>
		<circle class="st3" cx="23.7" cy="110.1" r="2.8"/>
		<circle class="st3" cx="23.7" cy="110" r="2.8"/>
		<circle class="st3" cx="23.7" cy="110" r="2.8"/>
		<circle class="st3" cx="23.7" cy="109.9" r="2.8"/>
		<circle class="st3" cx="23.7" cy="109.9" r="2.8"/>
		<circle class="st3" cx="23.7" cy="109.8" r="2.8"/>
		<circle class="st3" cx="23.7" cy="109.8" r="2.8"/>
		<circle class="st3" cx="23.7" cy="109.7" r="2.8"/>
		<circle class="st3" cx="23.7" cy="109.7" r="2.8"/>
		<circle class="st3" cx="23.7" cy="109.6" r="2.8"/>
		<circle class="st3" cx="23.7" cy="109.5" r="2.8"/>
		<circle class="st3" cx="23.7" cy="109.5" r="2.8"/>
		<circle class="st3" cx="23.7" cy="109.4" r="2.8"/>
		<circle class="st3" cx="23.7" cy="109.3" r="2.8"/>
		<circle class="st3" cx="23.7" cy="109.2" r="2.8"/>
		<circle class="st3" cx="23.7" cy="109.1" r="2.8"/>
		<circle class="st3" cx="23.7" cy="109" r="2.8"/>
		<circle class="st3" cx="23.7" cy="108.9" r="2.8"/>
		<circle class="st3" cx="23.7" cy="108.9" r="2.8"/>
		<circle class="st3" cx="23.7" cy="108.8" r="2.8"/>
		<circle class="st3" cx="23.7" cy="108.7" r="2.8"/>
		<circle class="st3" cx="23.7" cy="108.6" r="2.8"/>
		<circle class="st3" cx="23.7" cy="108.5" r="2.8"/>
		<circle class="st3" cx="23.7" cy="108.4" r="2.8"/>
		<circle class="st3" cx="23.7" cy="108.2" r="2.8"/>
		<circle class="st3" cx="23.7" cy="108.1" r="2.8"/>
		<circle class="st3" cx="23.7" cy="108" r="2.8"/>
		<circle class="st3" cx="23.7" cy="107.9" r="2.8"/>
		<circle class="st3" cx="23.7" cy="107.8" r="2.8"/>
		<circle class="st3" cx="23.7" cy="107.7" r="2.8"/>
		<circle class="st3" cx="23.7" cy="107.6" r="2.8"/>
		<circle class="st3" cx="23.7" cy="107.4" r="2.8"/>
		<circle class="st3" cx="23.7" cy="107.3" r="2.8"/>
		<circle class="st3" cx="23.7" cy="107.2" r="2.8"/>
		<circle class="st3" cx="23.7" cy="107.1" r="2.8"/>
		<circle class="st3" cx="23.7" cy="106.9" r="2.8"/>
		<circle class="st3" cx="23.7" cy="106.8" r="2.8"/>
		<circle class="st3" cx="23.7" cy="106.7" r="2.8"/>
		<circle class="st3" cx="23.7" cy="106.6" r="2.8"/>
		<circle class="st3" cx="23.7" cy="106.4" r="2.8"/>
		<circle class="st3" cx="23.7" cy="106.3" r="2.8"/>
		<circle class="st3" cx="23.7" cy="106.2" r="2.8"/>
		<circle class="st3" cx="23.7" cy="106" r="2.8"/>
		<circle class="st3" cx="23.7" cy="105.9" r="2.8"/>
		<circle class="st3" cx="23.7" cy="105.8" r="2.8"/>
		<circle class="st3" cx="23.7" cy="105.6" r="2.8"/>
		<circle class="st3" cx="23.7" cy="105.5" r="2.8"/>
		<circle class="st3" cx="23.7" cy="105.4" r="2.8"/>
		<circle class="st3" cx="23.7" cy="105.2" r="2.8"/>
		<circle class="st3" cx="23.7" cy="105.1" r="2.8"/>
		<circle class="st3" cx="23.7" cy="105" r="2.8"/>
		<circle class="st3" cx="23.7" cy="104.8" r="2.8"/>
		<circle class="st3" cx="23.7" cy="104.7" r="2.8"/>
		<circle class="st3" cx="23.7" cy="104.6" r="2.8"/>
		<circle class="st3" cx="23.7" cy="104.4" r="2.8"/>
		<circle class="st3" cx="23.7" cy="104.3" r="2.8"/>
		<circle class="st3" cx="23.7" cy="104.2" r="2.8"/>
		<circle class="st3" cx="23.7" cy="104" r="2.8"/>
		<circle class="st3" cx="23.7" cy="103.9" r="2.8"/>
		<circle class="st3" cx="23.7" cy="103.8" r="2.8"/>
		<circle class="st3" cx="23.7" cy="103.7" r="2.8"/>
		<circle class="st3" cx="23.7" cy="103.5" r="2.8"/>
		<circle class="st3" cx="23.7" cy="103.4" r="2.8"/>
		<circle class="st3" cx="23.7" cy="103.3" r="2.8"/>
		<circle class="st3" cx="23.7" cy="103.2" r="2.8"/>
		<circle class="st3" cx="23.7" cy="103" r="2.8"/>
		<circle class="st3" cx="23.7" cy="102.9" r="2.8"/>
		<circle class="st3" cx="23.7" cy="102.8" r="2.8"/>
		<circle class="st3" cx="23.7" cy="102.7" r="2.8"/>
		<circle class="st3" cx="23.7" cy="102.6" r="2.8"/>
		<circle class="st3" cx="23.7" cy="102.5" r="2.8"/>
		<circle class="st3" cx="23.7" cy="102.3" r="2.8"/>
		<circle class="st3" cx="23.7" cy="102.2" r="2.8"/>
		<circle class="st3" cx="23.7" cy="102.1" r="2.8"/>
		<circle class="st3" cx="23.7" cy="102" r="2.8"/>
		<circle class="st3" cx="23.7" cy="101.9" r="2.8"/>
		<circle class="st3" cx="23.7" cy="101.8" r="2.8"/>
		<circle class="st3" cx="23.7" cy="101.7" r="2.8"/>
		<circle class="st3" cx="23.8" cy="101.5" r="2.8"/>
		<circle class="st3" cx="23.8" cy="101.4" r="2.8"/>
		<circle class="st3" cx="23.8" cy="101.2" r="2.8"/>
		<circle class="st3" cx="23.8" cy="101.1" r="2.8"/>
		<circle class="st3" cx="23.8" cy="101" r="2.8"/>
		<circle class="st3" cx="23.8" cy="100.8" r="2.8"/>
		<circle class="st3" cx="23.9" cy="100.7" r="2.8"/>
		<circle class="st3" cx="23.9" cy="100.6" r="2.8"/>
		<circle class="st3" cx="23.9" cy="100.4" r="2.8"/>
		<circle class="st3" cx="24" cy="100.3" r="2.8"/>
		<circle class="st3" cx="24" cy="100.2" r="2.8"/>
		<circle class="st3" cx="24.1" cy="100.1" r="2.8"/>
		<circle class="st3" cx="24.1" cy="100" r="2.8"/>
		<circle class="st3" cx="24.2" cy="99.9" r="2.8"/>
		<circle class="st3" cx="24.2" cy="99.7" r="2.8"/>
		<circle class="st3" cx="24.3" cy="99.6" r="2.8"/>
		<circle class="st3" cx="24.3" cy="99.5" r="2.8"/>
		<circle class="st3" cx="24.4" cy="99.4" r="2.8"/>
		<circle class="st3" cx="24.5" cy="99.3" r="2.8"/>
		<circle class="st3" cx="24.5" cy="99.2" r="2.8"/>
		<circle class="st3" cx="24.6" cy="99.1" r="2.8"/>
		<circle class="st3" cx="24.7" cy="99" r="2.8"/>
		<circle class="st3" cx="24.8" cy="98.9" r="2.8"/>
		<circle class="st3" cx="24.8" cy="98.9" r="2.8"/>
		<circle class="st3" cx="24.9" cy="98.8" r="2.8"/>
		<circle class="st3" cx="25" cy="98.7" r="2.8"/>
		<circle class="st3" cx="25.1" cy="98.6" r="2.8"/>
		<circle class="st3" cx="25.2" cy="98.5" r="2.8"/>
		<circle class="st3" cx="25.3" cy="98.4" r="2.8"/>
		<circle class="st3" cx="25.4" cy="98.4" r="2.8"/>
		<circle class="st3" cx="25.4" cy="98.3" r="2.8"/>
		<circle class="st3" cx="25.5" cy="98.2" r="2.8"/>
		<circle class="st3" cx="25.6" cy="98.1" r="2.8"/>
		<circle class="st3" cx="25.7" cy="98.1" r="2.8"/>
		<circle class="st3" cx="25.8" cy="98" r="2.8"/>
		<circle class="st3" cx="25.9" cy="97.9" r="2.8"/>
		<circle class="st3" cx="26" cy="97.9" r="2.8"/>
		<circle class="st3" cx="26.1" cy="97.8" r="2.8"/>
		<circle class="st3" cx="26.2" cy="97.7" r="2.8"/>
		<circle class="st3" cx="26.3" cy="97.7" r="2.8"/>
		<circle class="st3" cx="26.4" cy="97.6" r="2.8"/>
		<circle class="st3" cx="26.6" cy="97.6" r="2.8"/>
		<circle class="st3" cx="26.7" cy="97.5" r="2.8"/>
		<circle class="st3" cx="26.8" cy="97.4" r="2.8"/>
		<circle class="st3" cx="26.9" cy="97.4" r="2.8"/>
		<circle class="st3" cx="27" cy="97.3" r="2.8"/>
		<circle class="st3" cx="27.1" cy="97.3" r="2.8"/>
		<circle class="st3" cx="27.2" cy="97.3" r="2.8"/>
		<circle class="st3" cx="27.3" cy="97.2" r="2.8"/>
		<circle class="st3" cx="27.4" cy="97.2" r="2.8"/>
		<circle class="st3" cx="27.5" cy="97.1" r="2.8"/>
		<circle class="st3" cx="27.7" cy="97.1" r="2.8"/>
		<circle class="st3" cx="27.8" cy="97" r="2.8"/>
		<circle class="st3" cx="27.9" cy="97" r="2.8"/>
		<circle class="st3" cx="28" cy="97" r="2.8"/>
		<circle class="st3" cx="28.1" cy="96.9" r="2.8"/>
		<circle class="st3" cx="28.2" cy="96.9" r="2.8"/>
		<circle class="st3" cx="28.3" cy="96.9" r="2.8"/>
		<circle class="st3" cx="28.4" cy="96.8" r="2.8"/>
		<circle class="st3" cx="28.6" cy="96.8" r="2.8"/>
		<circle class="st3" cx="28.7" cy="96.8" r="2.8"/>
		<circle class="st3" cx="28.8" cy="96.7" r="2.8"/>
		<circle class="st3" cx="28.9" cy="96.7" r="2.8"/>
		<circle class="st3" cx="29" cy="96.7" r="2.8"/>
		<circle class="st3" cx="29.1" cy="96.7" r="2.8"/>
		<circle class="st3" cx="29.2" cy="96.6" r="2.8"/>
		<circle class="st3" cx="29.3" cy="96.6" r="2.8"/>
		<circle class="st3" cx="29.4" cy="96.6" r="2.8"/>
		<circle class="st3" cx="29.5" cy="96.6" r="2.8"/>
		<circle class="st3" cx="29.6" cy="96.5" r="2.8"/>
		<circle class="st3" cx="29.7" cy="96.5" r="2.8"/>
		<circle class="st3" cx="29.8" cy="96.5" r="2.8"/>
		<circle class="st3" cx="29.9" cy="96.5" r="2.8"/>
		<circle class="st3" cx="30" cy="96.5" r="2.8"/>
		<circle class="st3" cx="30.1" cy="96.5" r="2.8"/>
		<circle class="st3" cx="30.2" cy="96.5" r="2.8"/>
		<circle class="st3" cx="30.3" cy="96.4" r="2.8"/>
		<circle class="st3" cx="30.4" cy="96.4" r="2.8"/>
		<circle class="st3" cx="30.5" cy="96.4" r="2.8"/>
		<circle class="st3" cx="30.6" cy="96.4" r="2.8"/>
		<circle class="st3" cx="30.7" cy="96.4" r="2.8"/>
		<circle class="st3" cx="30.8" cy="96.4" r="2.8"/>
		<circle class="st3" cx="30.9" cy="96.4" r="2.8"/>
		<circle class="st3" cx="30.9" cy="96.4" r="2.8"/>
		<circle class="st3" cx="31" cy="96.4" r="2.8"/>
		<circle class="st3" cx="31.1" cy="96.3" r="2.8"/>
		<circle class="st3" cx="31.2" cy="96.3" r="2.8"/>
		<circle class="st3" cx="31.2" cy="96.3" r="2.8"/>
		<circle class="st3" cx="31.3" cy="96.3" r="2.8"/>
		<circle class="st3" cx="31.4" cy="96.3" r="2.8"/>
		<circle class="st3" cx="31.4" cy="96.3" r="2.8"/>
		<circle class="st3" cx="31.5" cy="96.3" r="2.8"/>
		<circle class="st3" cx="31.6" cy="96.3" r="2.8"/>
		<circle class="st3" cx="31.6" cy="96.3" r="2.8"/>
		<circle class="st3" cx="31.7" cy="96.3" r="2.8"/>
		<circle class="st3" cx="31.7" cy="96.3" r="2.8"/>
		<circle class="st3" cx="31.8" cy="96.3" r="2.8"/>
		<circle class="st3" cx="31.8" cy="96.3" r="2.8"/>
		<circle class="st3" cx="31.9" cy="96.3" r="2.8"/>
		<circle class="st3" cx="31.9" cy="96.3" r="2.8"/>
		<circle class="st3" cx="31.9" cy="96.3" r="2.8"/>
		<circle class="st3" cx="32" cy="96.3" r="2.8"/>
		<circle class="st3" cx="32" cy="96.3" r="2.8"/>
		<circle class="st3" cx="32" cy="96.3" r="2.8"/>
		<circle class="st3" cx="32" cy="96.3" r="2.8"/>
		<circle class="st3" cx="32.1" cy="96.3" r="2.8"/>
		<circle class="st3" cx="32.1" cy="96.3" r="2.8"/>
		<circle class="st3" cx="32.1" cy="96.3" r="2.8"/>
		<circle class="st3" cx="32.1" cy="96.3" r="2.8"/>
		<circle class="st3" cx="32.1" cy="96.3" r="2.8"/>
	</g>
	<ellipse class="st3" cx="82.2" cy="87.9" rx="44.5" ry="19.5"/>
	<g>
		<path class="st3" d="M82.2,62.9c-1.6,0-2.9-1.5-2.9-3.3V24.5c0-1.8,1.3-3.3,2.9-3.3c1.6,0,2.9,1.5,2.9,3.3v35.1
			C85,61.5,83.7,62.9,82.2,62.9z"/>
		<path class="st3" d="M82.6,46.5l11.6-6.7c0.4-0.3,0.9-0.4,1.4-0.4c0.3,0,0.5,0,0.7,0.1c0.7,0.2,1.4,0.7,1.7,1.3
			c0.4,0.7,0.5,1.4,0.3,2.2c-0.2,0.7-0.7,1.4-1.3,1.7l-14.5,8.4V46.5z"/>
		<path class="st3" d="M67.1,45c-0.7-0.4-1.1-1-1.3-1.7c-0.2-0.7-0.1-1.5,0.3-2.2c0.4-0.7,1-1.1,1.8-1.3c0.2-0.1,0.5-0.1,0.7-0.1
			c0.5,0,1,0.1,1.4,0.4l11.7,6.7v6.6L67.1,45z"/>
		<path class="st3" d="M82.6,35.4l11.6-6.7c0.4-0.3,0.9-0.4,1.4-0.4c0.3,0,0.5,0,0.7,0.1c0.7,0.2,1.4,0.7,1.7,1.3
			c0.4,0.7,0.5,1.4,0.3,2.2c-0.2,0.7-0.7,1.4-1.3,1.7L82.6,42V35.4z"/>
		<path class="st3" d="M67.1,33.9c-0.7-0.4-1.1-1-1.3-1.7c-0.2-0.7-0.1-1.5,0.3-2.2c0.4-0.7,1-1.1,1.8-1.3c0.2-0.1,0.5-0.1,0.7-0.1
			c0.5,0,1,0.1,1.4,0.4l11.6,6.7v6.6L67.1,33.9z"/>
	</g>
	<g>
		<circle class="st3" cx="66.9" cy="133.8" r="1.4"/>
		<circle class="st3" cx="66.9" cy="133.8" r="1.4"/>
		<circle class="st3" cx="66.9" cy="133.8" r="1.4"/>
		<circle class="st3" cx="66.9" cy="133.8" r="1.4"/>
		<circle class="st3" cx="66.9" cy="133.8" r="1.4"/>
		<circle class="st3" cx="66.9" cy="133.9" r="1.4"/>
		<circle class="st3" cx="66.9" cy="133.9" r="1.4"/>
		<circle class="st3" cx="66.9" cy="133.9" r="1.4"/>
		<circle class="st3" cx="66.9" cy="133.9" r="1.4"/>
		<circle class="st3" cx="66.9" cy="133.9" r="1.4"/>
		<circle class="st3" cx="66.9" cy="133.9" r="1.4"/>
		<circle class="st3" cx="66.9" cy="133.9" r="1.4"/>
		<circle class="st3" cx="66.9" cy="133.9" r="1.4"/>
		<circle class="st3" cx="66.9" cy="133.9" r="1.4"/>
		<circle class="st3" cx="66.9" cy="133.9" r="1.4"/>
		<circle class="st3" cx="67" cy="133.9" r="1.4"/>
		<circle class="st3" cx="67" cy="134" r="1.4"/>
		<circle class="st3" cx="67" cy="134" r="1.4"/>
		<circle class="st3" cx="67" cy="134" r="1.4"/>
		<circle class="st3" cx="67" cy="134" r="1.4"/>
		<circle class="st3" cx="67.1" cy="134" r="1.4"/>
		<circle class="st3" cx="67.1" cy="134" r="1.4"/>
		<circle class="st3" cx="67.1" cy="134.1" r="1.4"/>
		<circle class="st3" cx="67.1" cy="134.1" r="1.4"/>
		<circle class="st3" cx="67.1" cy="134.1" r="1.4"/>
		<circle class="st3" cx="67.2" cy="134.1" r="1.4"/>
		<circle class="st3" cx="67.2" cy="134.1" r="1.4"/>
		<circle class="st3" cx="67.2" cy="134.2" r="1.4"/>
		<circle class="st3" cx="67.2" cy="134.2" r="1.4"/>
		<circle class="st3" cx="67.3" cy="134.2" r="1.4"/>
		<circle class="st3" cx="67.3" cy="134.2" r="1.4"/>
		<circle class="st3" cx="67.3" cy="134.2" r="1.4"/>
		<circle class="st3" cx="67.4" cy="134.3" r="1.4"/>
		<circle class="st3" cx="67.4" cy="134.3" r="1.4"/>
		<circle class="st3" cx="67.4" cy="134.3" r="1.4"/>
		<circle class="st3" cx="67.5" cy="134.3" r="1.4"/>
		<circle class="st3" cx="67.5" cy="134.4" r="1.4"/>
		<circle class="st3" cx="67.5" cy="134.4" r="1.4"/>
		<circle class="st3" cx="67.6" cy="134.4" r="1.4"/>
		<circle class="st3" cx="67.6" cy="134.5" r="1.4"/>
		<circle class="st3" cx="67.7" cy="134.5" r="1.4"/>
		<circle class="st3" cx="67.7" cy="134.5" r="1.4"/>
		<circle class="st3" cx="67.7" cy="134.5" r="1.4"/>
		<circle class="st3" cx="67.8" cy="134.6" r="1.4"/>
		<circle class="st3" cx="67.8" cy="134.6" r="1.4"/>
		<circle class="st3" cx="67.9" cy="134.6" r="1.4"/>
		<circle class="st3" cx="67.9" cy="134.7" r="1.4"/>
		<circle class="st3" cx="68" cy="134.7" r="1.4"/>
		<circle class="st3" cx="68" cy="134.7" r="1.4"/>
		<circle class="st3" cx="68.1" cy="134.8" r="1.4"/>
		<circle class="st3" cx="68.1" cy="134.8" r="1.4"/>
		<circle class="st3" cx="68.2" cy="134.8" r="1.4"/>
		<circle class="st3" cx="68.2" cy="134.9" r="1.4"/>
		<circle class="st3" cx="68.3" cy="134.9" r="1.4"/>
		<circle class="st3" cx="68.4" cy="134.9" r="1.4"/>
		<circle class="st3" cx="68.4" cy="135" r="1.4"/>
		<circle class="st3" cx="68.5" cy="135" r="1.4"/>
		<circle class="st3" cx="68.5" cy="135" r="1.4"/>
		<circle class="st3" cx="68.6" cy="135.1" r="1.4"/>
		<circle class="st3" cx="68.7" cy="135.1" r="1.4"/>
		<circle class="st3" cx="68.7" cy="135.1" r="1.4"/>
		<circle class="st3" cx="68.8" cy="135.2" r="1.4"/>
		<circle class="st3" cx="68.9" cy="135.2" r="1.4"/>
		<circle class="st3" cx="68.9" cy="135.2" r="1.4"/>
		<circle class="st3" cx="69" cy="135.3" r="1.4"/>
		<circle class="st3" cx="69.1" cy="135.3" r="1.4"/>
		<circle class="st3" cx="69.1" cy="135.4" r="1.4"/>
		<circle class="st3" cx="69.2" cy="135.4" r="1.4"/>
		<circle class="st3" cx="69.3" cy="135.4" r="1.4"/>
		<circle class="st3" cx="69.4" cy="135.5" r="1.4"/>
		<circle class="st3" cx="69.4" cy="135.5" r="1.4"/>
		<circle class="st3" cx="69.5" cy="135.6" r="1.4"/>
		<circle class="st3" cx="69.6" cy="135.6" r="1.4"/>
		<circle class="st3" cx="69.7" cy="135.6" r="1.4"/>
		<circle class="st3" cx="69.7" cy="135.7" r="1.4"/>
		<circle class="st3" cx="69.8" cy="135.7" r="1.4"/>
		<circle class="st3" cx="69.9" cy="135.7" r="1.4"/>
		<circle class="st3" cx="70" cy="135.8" r="1.4"/>
		<circle class="st3" cx="70.1" cy="135.8" r="1.4"/>
		<circle class="st3" cx="70.2" cy="135.9" r="1.4"/>
		<circle class="st3" cx="70.3" cy="135.9" r="1.4"/>
		<circle class="st3" cx="70.4" cy="135.9" r="1.4"/>
		<circle class="st3" cx="70.4" cy="136" r="1.4"/>
		<circle class="st3" cx="70.5" cy="136" r="1.4"/>
		<circle class="st3" cx="70.6" cy="136.1" r="1.4"/>
		<circle class="st3" cx="70.7" cy="136.1" r="1.4"/>
		<circle class="st3" cx="70.8" cy="136.1" r="1.4"/>
		<circle class="st3" cx="70.9" cy="136.2" r="1.4"/>
		<circle class="st3" cx="71" cy="136.2" r="1.4"/>
		<circle class="st3" cx="71.1" cy="136.2" r="1.4"/>
		<circle class="st3" cx="71.2" cy="136.3" r="1.4"/>
		<circle class="st3" cx="71.3" cy="136.3" r="1.4"/>
		<circle class="st3" cx="71.4" cy="136.4" r="1.4"/>
		<circle class="st3" cx="71.5" cy="136.4" r="1.4"/>
		<circle class="st3" cx="71.6" cy="136.4" r="1.4"/>
		<circle class="st3" cx="71.7" cy="136.5" r="1.4"/>
		<circle class="st3" cx="71.9" cy="136.5" r="1.4"/>
		<circle class="st3" cx="72" cy="136.5" r="1.4"/>
		<circle class="st3" cx="72.1" cy="136.6" r="1.4"/>
		<circle class="st3" cx="72.2" cy="136.6" r="1.4"/>
		<circle class="st3" cx="72.3" cy="136.7" r="1.4"/>
		<circle class="st3" cx="72.4" cy="136.7" r="1.4"/>
		<circle class="st3" cx="72.5" cy="136.7" r="1.4"/>
		<circle class="st3" cx="72.7" cy="136.8" r="1.4"/>
		<circle class="st3" cx="72.8" cy="136.8" r="1.4"/>
		<circle class="st3" cx="72.9" cy="136.8" r="1.4"/>
		<circle class="st3" cx="73" cy="136.9" r="1.4"/>
		<circle class="st3" cx="73.2" cy="136.9" r="1.4"/>
		<circle class="st3" cx="73.3" cy="136.9" r="1.4"/>
		<circle class="st3" cx="73.4" cy="137" r="1.4"/>
		<circle class="st3" cx="73.5" cy="137" r="1.4"/>
		<circle class="st3" cx="73.7" cy="137" r="1.4"/>
		<circle class="st3" cx="73.8" cy="137.1" r="1.4"/>
		<circle class="st3" cx="73.9" cy="137.1" r="1.4"/>
		<circle class="st3" cx="74.1" cy="137.1" r="1.4"/>
		<circle class="st3" cx="74.2" cy="137.2" r="1.4"/>
		<circle class="st3" cx="74.3" cy="137.2" r="1.4"/>
		<circle class="st3" cx="74.5" cy="137.2" r="1.4"/>
		<circle class="st3" cx="74.6" cy="137.3" r="1.4"/>
		<circle class="st3" cx="74.8" cy="137.3" r="1.4"/>
		<circle class="st3" cx="74.9" cy="137.3" r="1.4"/>
		<circle class="st3" cx="75" cy="137.4" r="1.4"/>
		<circle class="st3" cx="75.2" cy="137.4" r="1.4"/>
		<circle class="st3" cx="75.3" cy="137.4" r="1.4"/>
		<circle class="st3" cx="75.5" cy="137.4" r="1.4"/>
		<circle class="st3" cx="75.6" cy="137.5" r="1.4"/>
		<circle class="st3" cx="75.8" cy="137.5" r="1.4"/>
		<circle class="st3" cx="75.9" cy="137.5" r="1.4"/>
		<circle class="st3" cx="76.1" cy="137.5" r="1.4"/>
		<circle class="st3" cx="76.3" cy="137.6" r="1.4"/>
		<circle class="st3" cx="76.4" cy="137.6" r="1.4"/>
		<circle class="st3" cx="76.6" cy="137.6" r="1.4"/>
		<circle class="st3" cx="76.7" cy="137.6" r="1.4"/>
		<circle class="st3" cx="76.9" cy="137.7" r="1.4"/>
		<circle class="st3" cx="77.1" cy="137.7" r="1.4"/>
		<circle class="st3" cx="77.2" cy="137.7" r="1.4"/>
		<circle class="st3" cx="77.4" cy="137.7" r="1.4"/>
		<circle class="st3" cx="77.6" cy="137.8" r="1.4"/>
		<circle class="st3" cx="77.7" cy="137.8" r="1.4"/>
		<circle class="st3" cx="77.9" cy="137.8" r="1.4"/>
		<circle class="st3" cx="78.1" cy="137.8" r="1.4"/>
		<circle class="st3" cx="78.2" cy="137.8" r="1.4"/>
		<circle class="st3" cx="78.4" cy="137.8" r="1.4"/>
		<circle class="st3" cx="78.6" cy="137.9" r="1.4"/>
		<circle class="st3" cx="78.8" cy="137.9" r="1.4"/>
		<circle class="st3" cx="79" cy="137.9" r="1.4"/>
		<circle class="st3" cx="79.1" cy="137.9" r="1.4"/>
		<circle class="st3" cx="79.3" cy="137.9" r="1.4"/>
		<circle class="st3" cx="79.5" cy="137.9" r="1.4"/>
		<circle class="st3" cx="79.7" cy="137.9" r="1.4"/>
		<circle class="st3" cx="79.9" cy="138" r="1.4"/>
		<circle class="st3" cx="80.1" cy="138" r="1.4"/>
		<circle class="st3" cx="80.3" cy="138" r="1.4"/>
		<circle class="st3" cx="80.5" cy="138" r="1.4"/>
		<circle class="st3" cx="80.6" cy="138" r="1.4"/>
		<circle class="st3" cx="80.8" cy="138" r="1.4"/>
		<circle class="st3" cx="81" cy="138" r="1.4"/>
		<circle class="st3" cx="81.2" cy="138" r="1.4"/>
		<circle class="st3" cx="81.4" cy="138" r="1.4"/>
		<circle class="st3" cx="81.6" cy="138" r="1.4"/>
		<circle class="st3" cx="81.8" cy="138" r="1.4"/>
		<circle class="st3" cx="82" cy="138" r="1.4"/>
		<circle class="st3" cx="82.3" cy="138" r="1.4"/>
		<circle class="st3" cx="82.5" cy="138" r="1.4"/>
		<circle class="st3" cx="82.7" cy="138" r="1.4"/>
		<circle class="st3" cx="82.9" cy="138" r="1.4"/>
		<circle class="st3" cx="83.1" cy="138" r="1.4"/>
		<circle class="st3" cx="83.3" cy="138" r="1.4"/>
		<circle class="st3" cx="83.5" cy="138" r="1.4"/>
		<circle class="st3" cx="83.7" cy="138" r="1.4"/>
		<circle class="st3" cx="83.8" cy="138" r="1.4"/>
		<circle class="st3" cx="84" cy="138" r="1.4"/>
		<circle class="st3" cx="84.2" cy="138" r="1.4"/>
		<circle class="st3" cx="84.4" cy="138" r="1.4"/>
		<circle class="st3" cx="84.6" cy="137.9" r="1.4"/>
		<circle class="st3" cx="84.8" cy="137.9" r="1.4"/>
		<circle class="st3" cx="85" cy="137.9" r="1.4"/>
		<circle class="st3" cx="85.2" cy="137.9" r="1.4"/>
		<circle class="st3" cx="85.3" cy="137.9" r="1.4"/>
		<circle class="st3" cx="85.5" cy="137.9" r="1.4"/>
		<circle class="st3" cx="85.7" cy="137.9" r="1.4"/>
		<circle class="st3" cx="85.9" cy="137.8" r="1.4"/>
		<circle class="st3" cx="86.1" cy="137.8" r="1.4"/>
		<circle class="st3" cx="86.2" cy="137.8" r="1.4"/>
		<circle class="st3" cx="86.4" cy="137.8" r="1.4"/>
		<circle class="st3" cx="86.6" cy="137.8" r="1.4"/>
		<circle class="st3" cx="86.7" cy="137.8" r="1.4"/>
		<circle class="st3" cx="86.9" cy="137.7" r="1.4"/>
		<circle class="st3" cx="87.1" cy="137.7" r="1.4"/>
		<circle class="st3" cx="87.2" cy="137.7" r="1.4"/>
		<circle class="st3" cx="87.4" cy="137.7" r="1.4"/>
		<circle class="st3" cx="87.6" cy="137.6" r="1.4"/>
		<circle class="st3" cx="87.7" cy="137.6" r="1.4"/>
		<circle class="st3" cx="87.9" cy="137.6" r="1.4"/>
		<circle class="st3" cx="88" cy="137.6" r="1.4"/>
		<circle class="st3" cx="88.2" cy="137.5" r="1.4"/>
		<circle class="st3" cx="88.4" cy="137.5" r="1.4"/>
		<circle class="st3" cx="88.5" cy="137.5" r="1.4"/>
		<circle class="st3" cx="88.7" cy="137.5" r="1.4"/>
		<circle class="st3" cx="88.8" cy="137.4" r="1.4"/>
		<circle class="st3" cx="89" cy="137.4" r="1.4"/>
		<circle class="st3" cx="89.1" cy="137.4" r="1.4"/>
		<circle class="st3" cx="89.3" cy="137.4" r="1.4"/>
		<circle class="st3" cx="89.4" cy="137.3" r="1.4"/>
		<circle class="st3" cx="89.5" cy="137.3" r="1.4"/>
		<circle class="st3" cx="89.7" cy="137.3" r="1.4"/>
		<circle class="st3" cx="89.8" cy="137.2" r="1.4"/>
		<circle class="st3" cx="90" cy="137.2" r="1.4"/>
		<circle class="st3" cx="90.1" cy="137.2" r="1.4"/>
		<circle class="st3" cx="90.2" cy="137.1" r="1.4"/>
		<circle class="st3" cx="90.4" cy="137.1" r="1.4"/>
		<circle class="st3" cx="90.5" cy="137.1" r="1.4"/>
		<circle class="st3" cx="90.6" cy="137" r="1.4"/>
		<circle class="st3" cx="90.8" cy="137" r="1.4"/>
		<circle class="st3" cx="90.9" cy="137" r="1.4"/>
		<circle class="st3" cx="91" cy="136.9" r="1.4"/>
		<circle class="st3" cx="91.1" cy="136.9" r="1.4"/>
		<circle class="st3" cx="91.3" cy="136.9" r="1.4"/>
		<circle class="st3" cx="91.4" cy="136.8" r="1.4"/>
		<circle class="st3" cx="91.5" cy="136.8" r="1.4"/>
		<circle class="st3" cx="91.6" cy="136.8" r="1.4"/>
		<circle class="st3" cx="91.8" cy="136.7" r="1.4"/>
		<circle class="st3" cx="91.9" cy="136.7" r="1.4"/>
		<circle class="st3" cx="92" cy="136.7" r="1.4"/>
		<circle class="st3" cx="92.1" cy="136.6" r="1.4"/>
		<circle class="st3" cx="92.2" cy="136.6" r="1.4"/>
		<circle class="st3" cx="92.3" cy="136.5" r="1.4"/>
		<circle class="st3" cx="92.4" cy="136.5" r="1.4"/>
		<circle class="st3" cx="92.6" cy="136.5" r="1.4"/>
		<circle class="st3" cx="92.7" cy="136.4" r="1.4"/>
		<circle class="st3" cx="92.8" cy="136.4" r="1.4"/>
		<circle class="st3" cx="92.9" cy="136.4" r="1.4"/>
		<circle class="st3" cx="93" cy="136.3" r="1.4"/>
		<circle class="st3" cx="93.1" cy="136.3" r="1.4"/>
		<circle class="st3" cx="93.2" cy="136.2" r="1.4"/>
		<circle class="st3" cx="93.3" cy="136.2" r="1.4"/>
		<circle class="st3" cx="93.4" cy="136.2" r="1.4"/>
		<circle class="st3" cx="93.5" cy="136.1" r="1.4"/>
		<circle class="st3" cx="93.6" cy="136.1" r="1.4"/>
		<circle class="st3" cx="93.7" cy="136.1" r="1.4"/>
		<circle class="st3" cx="93.8" cy="136" r="1.4"/>
		<circle class="st3" cx="93.9" cy="136" r="1.4"/>
		<circle class="st3" cx="93.9" cy="135.9" r="1.4"/>
		<circle class="st3" cx="94" cy="135.9" r="1.4"/>
		<circle class="st3" cx="94.1" cy="135.9" r="1.4"/>
		<circle class="st3" cx="94.2" cy="135.8" r="1.4"/>
		<circle class="st3" cx="94.3" cy="135.8" r="1.4"/>
		<circle class="st3" cx="94.4" cy="135.7" r="1.4"/>
		<circle class="st3" cx="94.5" cy="135.7" r="1.4"/>
		<circle class="st3" cx="94.6" cy="135.7" r="1.4"/>
		<circle class="st3" cx="94.6" cy="135.6" r="1.4"/>
		<circle class="st3" cx="94.7" cy="135.6" r="1.4"/>
		<circle class="st3" cx="94.8" cy="135.6" r="1.4"/>
		<circle class="st3" cx="94.9" cy="135.5" r="1.4"/>
		<circle class="st3" cx="94.9" cy="135.5" r="1.4"/>
		<circle class="st3" cx="95" cy="135.4" r="1.4"/>
		<circle class="st3" cx="95.1" cy="135.4" r="1.4"/>
		<circle class="st3" cx="95.2" cy="135.4" r="1.4"/>
		<circle class="st3" cx="95.2" cy="135.3" r="1.4"/>
		<circle class="st3" cx="95.3" cy="135.3" r="1.4"/>
		<circle class="st3" cx="95.4" cy="135.2" r="1.4"/>
		<circle class="st3" cx="95.4" cy="135.2" r="1.4"/>
		<circle class="st3" cx="95.5" cy="135.2" r="1.4"/>
		<circle class="st3" cx="95.6" cy="135.1" r="1.4"/>
		<circle class="st3" cx="95.6" cy="135.1" r="1.4"/>
		<circle class="st3" cx="95.7" cy="135.1" r="1.4"/>
		<circle class="st3" cx="95.8" cy="135" r="1.4"/>
		<circle class="st3" cx="95.8" cy="135" r="1.4"/>
		<circle class="st3" cx="95.9" cy="135" r="1.4"/>
		<circle class="st3" cx="95.9" cy="134.9" r="1.4"/>
		<circle class="st3" cx="96" cy="134.9" r="1.4"/>
		<circle class="st3" cx="96.1" cy="134.9" r="1.4"/>
		<circle class="st3" cx="96.1" cy="134.8" r="1.4"/>
		<circle class="st3" cx="96.2" cy="134.8" r="1.4"/>
		<circle class="st3" cx="96.2" cy="134.8" r="1.4"/>
		<circle class="st3" cx="96.3" cy="134.7" r="1.4"/>
		<circle class="st3" cx="96.3" cy="134.7" r="1.4"/>
		<circle class="st3" cx="96.4" cy="134.7" r="1.4"/>
		<circle class="st3" cx="96.4" cy="134.6" r="1.4"/>
		<circle class="st3" cx="96.5" cy="134.6" r="1.4"/>
		<circle class="st3" cx="96.5" cy="134.6" r="1.4"/>
		<circle class="st3" cx="96.6" cy="134.5" r="1.4"/>
		<circle class="st3" cx="96.6" cy="134.5" r="1.4"/>
		<circle class="st3" cx="96.6" cy="134.5" r="1.4"/>
		<circle class="st3" cx="96.7" cy="134.5" r="1.4"/>
		<circle class="st3" cx="96.7" cy="134.4" r="1.4"/>
		<circle class="st3" cx="96.8" cy="134.4" r="1.4"/>
		<circle class="st3" cx="96.8" cy="134.4" r="1.4"/>
		<circle class="st3" cx="96.8" cy="134.3" r="1.4"/>
		<circle class="st3" cx="96.9" cy="134.3" r="1.4"/>
		<circle class="st3" cx="96.9" cy="134.3" r="1.4"/>
		<circle class="st3" cx="96.9" cy="134.3" r="1.4"/>
		<circle class="st3" cx="97" cy="134.2" r="1.4"/>
		<circle class="st3" cx="97" cy="134.2" r="1.4"/>
		<circle class="st3" cx="97" cy="134.2" r="1.4"/>
		<circle class="st3" cx="97.1" cy="134.2" r="1.4"/>
		<circle class="st3" cx="97.1" cy="134.2" r="1.4"/>
		<circle class="st3" cx="97.1" cy="134.1" r="1.4"/>
		<circle class="st3" cx="97.1" cy="134.1" r="1.4"/>
		<circle class="st3" cx="97.2" cy="134.1" r="1.4"/>
		<circle class="st3" cx="97.2" cy="134.1" r="1.4"/>
		<circle class="st3" cx="97.2" cy="134.1" r="1.4"/>
		<circle class="st3" cx="97.2" cy="134" r="1.4"/>
		<circle class="st3" cx="97.3" cy="134" r="1.4"/>
		<circle class="st3" cx="97.3" cy="134" r="1.4"/>
		<circle class="st3" cx="97.3" cy="134" r="1.4"/>
		<circle class="st3" cx="97.3" cy="134" r="1.4"/>
		<circle class="st3" cx="97.3" cy="134" r="1.4"/>
		<circle class="st3" cx="97.3" cy="133.9" r="1.4"/>
		<circle class="st3" cx="97.4" cy="133.9" r="1.4"/>
		<circle class="st3" cx="97.4" cy="133.9" r="1.4"/>
		<circle class="st3" cx="97.4" cy="133.9" r="1.4"/>
		<circle class="st3" cx="97.4" cy="133.9" r="1.4"/>
		<circle class="st3" cx="97.4" cy="133.9" r="1.4"/>
		<circle class="st3" cx="97.4" cy="133.9" r="1.4"/>
		<circle class="st3" cx="97.4" cy="133.9" r="1.4"/>
		<circle class="st3" cx="97.4" cy="133.9" r="1.4"/>
		<circle class="st3" cx="97.4" cy="133.9" r="1.4"/>
		<circle class="st3" cx="97.4" cy="133.9" r="1.4"/>
		<circle class="st3" cx="97.4" cy="133.8" r="1.4"/>
		<circle class="st3" cx="97.4" cy="133.8" r="1.4"/>
		<circle class="st3" cx="97.4" cy="133.8" r="1.4"/>
		<circle class="st3" cx="97.4" cy="133.8" r="1.4"/>
		<circle class="st3" cx="97.4" cy="133.8" r="1.4"/>
	</g>
	<g>
		<path class="st1" d="M81.5,76.2C63.8,76,51.3,81.3,48.8,87.8c-0.3,0.7-1.5,2-3,1.5c-1.2-0.4-1.4-1.6-1.1-2.3
			c2.9-7.6,17.7-12.8,36.8-12.8c19.4,0,34.2,5.1,36.8,12.8C118.5,87.8,115,76.5,81.5,76.2z"/>
		<g>
			<path class="st1" d="M81.5,101.6c11.1-0.1,22.5-2.5,32.1-8.1c0.6-0.3,1.3-0.1,1.6,0.5c0.3,0.6,0.1,1.3-0.5,1.6
				c-2.6,1.2-5.3,2.4-8,3.2C98.5,101.3,89.9,102.2,81.5,101.6L81.5,101.6z"/>
		</g>
		<g>
			<path class="st1" d="M74.9,93.6c-3.6-0.3-7.2-0.8-10.5-2.2c-0.8-0.4-1.7-0.8-2.4-1.6c-1.4-2.2,1.9-3.5,3.5-3.8
				c0.9-0.2,1.8-0.4,2.6-0.5c-1.2,0.5-6.5,2-5.3,3.6c0.4,0.5,1.2,0.9,2,1.2c3.2,1.1,6.8,1.5,10.2,1.8C76,92.2,75.9,93.7,74.9,93.6
				L74.9,93.6z"/>
		</g>
		<g>
			<path class="st1" d="M91.5,84.2c3.1,0.3,6.4,0.7,9.1,2.6c3.2,2.6-0.8,4.8-3.4,5.2c-1.7,0.4-3.5,0.5-5.2,0.5
				c2.5-0.5,5.1-1,7.3-2.3c4.7-2.9-6.2-4.3-7.9-4.4C90.2,85.6,90.4,84,91.5,84.2L91.5,84.2z"/>
		</g>
	</g>
</g>
</svg>
